<svg width="608" height="194" viewBox="0 0 608 194" fill="none" xmlns="http://www.w3.org/2000/svg">
<g clip-path="url(#clip0_112_712)">
<mask id="mask0_112_712" style="mask-type:alpha" maskUnits="userSpaceOnUse" x="136" y="-71" width="336" height="336">
<rect width="336" height="336" transform="translate(136 -71)" fill="url(#paint0_radial_112_712)"/>
</mask>
<g mask="url(#mask0_112_712)">
<path d="M144 -64.5C144 -63.6716 143.328 -63 142.5 -63C141.672 -63 141 -63.6716 141 -64.5C141 -65.3284 141.672 -66 142.5 -66C143.328 -66 144 -65.3284 144 -64.5Z" fill="#6B7280" fill-opacity="0.6"/>
<path d="M163 -64.5C163 -63.6716 162.328 -63 161.5 -63C160.672 -63 160 -63.6716 160 -64.5C160 -65.3284 160.672 -66 161.5 -66C162.328 -66 163 -65.3284 163 -64.5Z" fill="#6B7280" fill-opacity="0.6"/>
<path d="M182 -64.5C182 -63.6716 181.328 -63 180.5 -63C179.672 -63 179 -63.6716 179 -64.5C179 -65.3284 179.672 -66 180.5 -66C181.328 -66 182 -65.3284 182 -64.5Z" fill="#6B7280" fill-opacity="0.6"/>
<path d="M201 -64.5C201 -63.6716 200.328 -63 199.5 -63C198.672 -63 198 -63.6716 198 -64.5C198 -65.3284 198.672 -66 199.5 -66C200.328 -66 201 -65.3284 201 -64.5Z" fill="#6B7280" fill-opacity="0.6"/>
<path d="M220 -64.5C220 -63.6716 219.328 -63 218.5 -63C217.672 -63 217 -63.6716 217 -64.5C217 -65.3284 217.672 -66 218.5 -66C219.328 -66 220 -65.3284 220 -64.5Z" fill="#6B7280" fill-opacity="0.6"/>
<path d="M239 -64.5C239 -63.6716 238.328 -63 237.5 -63C236.672 -63 236 -63.6716 236 -64.5C236 -65.3284 236.672 -66 237.5 -66C238.328 -66 239 -65.3284 239 -64.5Z" fill="#6B7280" fill-opacity="0.6"/>
<path d="M258 -64.5C258 -63.6716 257.328 -63 256.5 -63C255.672 -63 255 -63.6716 255 -64.5C255 -65.3284 255.672 -66 256.5 -66C257.328 -66 258 -65.3284 258 -64.5Z" fill="#6B7280" fill-opacity="0.6"/>
<path d="M277 -64.5C277 -63.6716 276.328 -63 275.5 -63C274.672 -63 274 -63.6716 274 -64.5C274 -65.3284 274.672 -66 275.5 -66C276.328 -66 277 -65.3284 277 -64.5Z" fill="#6B7280" fill-opacity="0.6"/>
<path d="M296 -64.5C296 -63.6716 295.328 -63 294.5 -63C293.672 -63 293 -63.6716 293 -64.5C293 -65.3284 293.672 -66 294.5 -66C295.328 -66 296 -65.3284 296 -64.5Z" fill="#6B7280" fill-opacity="0.6"/>
<path d="M315 -64.5C315 -63.6716 314.328 -63 313.5 -63C312.672 -63 312 -63.6716 312 -64.5C312 -65.3284 312.672 -66 313.5 -66C314.328 -66 315 -65.3284 315 -64.5Z" fill="#6B7280" fill-opacity="0.6"/>
<path d="M334 -64.5C334 -63.6716 333.328 -63 332.5 -63C331.672 -63 331 -63.6716 331 -64.5C331 -65.3284 331.672 -66 332.5 -66C333.328 -66 334 -65.3284 334 -64.5Z" fill="#6B7280" fill-opacity="0.6"/>
<path d="M353 -64.5C353 -63.6716 352.328 -63 351.5 -63C350.672 -63 350 -63.6716 350 -64.5C350 -65.3284 350.672 -66 351.5 -66C352.328 -66 353 -65.3284 353 -64.5Z" fill="#6B7280" fill-opacity="0.6"/>
<path d="M372 -64.5C372 -63.6716 371.328 -63 370.5 -63C369.672 -63 369 -63.6716 369 -64.5C369 -65.3284 369.672 -66 370.5 -66C371.328 -66 372 -65.3284 372 -64.5Z" fill="#6B7280" fill-opacity="0.6"/>
<path d="M391 -64.5C391 -63.6716 390.328 -63 389.5 -63C388.672 -63 388 -63.6716 388 -64.5C388 -65.3284 388.672 -66 389.5 -66C390.328 -66 391 -65.3284 391 -64.5Z" fill="#6B7280" fill-opacity="0.6"/>
<path d="M410 -64.5C410 -63.6716 409.328 -63 408.5 -63C407.672 -63 407 -63.6716 407 -64.5C407 -65.3284 407.672 -66 408.5 -66C409.328 -66 410 -65.3284 410 -64.5Z" fill="#6B7280" fill-opacity="0.6"/>
<path d="M429 -64.5C429 -63.6716 428.328 -63 427.5 -63C426.672 -63 426 -63.6716 426 -64.5C426 -65.3284 426.672 -66 427.5 -66C428.328 -66 429 -65.3284 429 -64.5Z" fill="#6B7280" fill-opacity="0.6"/>
<path d="M448 -64.5C448 -63.6716 447.328 -63 446.5 -63C445.672 -63 445 -63.6716 445 -64.5C445 -65.3284 445.672 -66 446.5 -66C447.328 -66 448 -65.3284 448 -64.5Z" fill="#6B7280" fill-opacity="0.6"/>
<path d="M467 -64.5C467 -63.6716 466.328 -63 465.5 -63C464.672 -63 464 -63.6716 464 -64.5C464 -65.3284 464.672 -66 465.5 -66C466.328 -66 467 -65.3284 467 -64.5Z" fill="#6B7280" fill-opacity="0.6"/>
<path d="M144 -45.5C144 -44.6716 143.328 -44 142.5 -44C141.672 -44 141 -44.6716 141 -45.5C141 -46.3284 141.672 -47 142.5 -47C143.328 -47 144 -46.3284 144 -45.5Z" fill="#6B7280" fill-opacity="0.6"/>
<path d="M163 -45.5C163 -44.6716 162.328 -44 161.5 -44C160.672 -44 160 -44.6716 160 -45.5C160 -46.3284 160.672 -47 161.5 -47C162.328 -47 163 -46.3284 163 -45.5Z" fill="#6B7280" fill-opacity="0.6"/>
<path d="M182 -45.5C182 -44.6716 181.328 -44 180.5 -44C179.672 -44 179 -44.6716 179 -45.5C179 -46.3284 179.672 -47 180.5 -47C181.328 -47 182 -46.3284 182 -45.5Z" fill="#6B7280" fill-opacity="0.6"/>
<path d="M201 -45.5C201 -44.6716 200.328 -44 199.5 -44C198.672 -44 198 -44.6716 198 -45.5C198 -46.3284 198.672 -47 199.5 -47C200.328 -47 201 -46.3284 201 -45.5Z" fill="#6B7280" fill-opacity="0.6"/>
<path d="M220 -45.5C220 -44.6716 219.328 -44 218.5 -44C217.672 -44 217 -44.6716 217 -45.5C217 -46.3284 217.672 -47 218.5 -47C219.328 -47 220 -46.3284 220 -45.5Z" fill="#6B7280" fill-opacity="0.6"/>
<path d="M239 -45.5C239 -44.6716 238.328 -44 237.5 -44C236.672 -44 236 -44.6716 236 -45.5C236 -46.3284 236.672 -47 237.5 -47C238.328 -47 239 -46.3284 239 -45.5Z" fill="#6B7280" fill-opacity="0.6"/>
<path d="M258 -45.5C258 -44.6716 257.328 -44 256.5 -44C255.672 -44 255 -44.6716 255 -45.5C255 -46.3284 255.672 -47 256.5 -47C257.328 -47 258 -46.3284 258 -45.5Z" fill="#6B7280" fill-opacity="0.6"/>
<path d="M277 -45.5C277 -44.6716 276.328 -44 275.5 -44C274.672 -44 274 -44.6716 274 -45.5C274 -46.3284 274.672 -47 275.5 -47C276.328 -47 277 -46.3284 277 -45.5Z" fill="#6B7280" fill-opacity="0.6"/>
<path d="M296 -45.5C296 -44.6716 295.328 -44 294.5 -44C293.672 -44 293 -44.6716 293 -45.5C293 -46.3284 293.672 -47 294.5 -47C295.328 -47 296 -46.3284 296 -45.5Z" fill="#6B7280" fill-opacity="0.6"/>
<path d="M315 -45.5C315 -44.6716 314.328 -44 313.5 -44C312.672 -44 312 -44.6716 312 -45.5C312 -46.3284 312.672 -47 313.5 -47C314.328 -47 315 -46.3284 315 -45.5Z" fill="#6B7280" fill-opacity="0.6"/>
<path d="M334 -45.5C334 -44.6716 333.328 -44 332.5 -44C331.672 -44 331 -44.6716 331 -45.5C331 -46.3284 331.672 -47 332.5 -47C333.328 -47 334 -46.3284 334 -45.5Z" fill="#6B7280" fill-opacity="0.6"/>
<path d="M353 -45.5C353 -44.6716 352.328 -44 351.5 -44C350.672 -44 350 -44.6716 350 -45.5C350 -46.3284 350.672 -47 351.5 -47C352.328 -47 353 -46.3284 353 -45.5Z" fill="#6B7280" fill-opacity="0.6"/>
<path d="M372 -45.5C372 -44.6716 371.328 -44 370.5 -44C369.672 -44 369 -44.6716 369 -45.5C369 -46.3284 369.672 -47 370.5 -47C371.328 -47 372 -46.3284 372 -45.5Z" fill="#6B7280" fill-opacity="0.6"/>
<path d="M391 -45.5C391 -44.6716 390.328 -44 389.5 -44C388.672 -44 388 -44.6716 388 -45.5C388 -46.3284 388.672 -47 389.5 -47C390.328 -47 391 -46.3284 391 -45.5Z" fill="#6B7280" fill-opacity="0.6"/>
<path d="M410 -45.5C410 -44.6716 409.328 -44 408.5 -44C407.672 -44 407 -44.6716 407 -45.5C407 -46.3284 407.672 -47 408.5 -47C409.328 -47 410 -46.3284 410 -45.5Z" fill="#6B7280" fill-opacity="0.6"/>
<path d="M429 -45.5C429 -44.6716 428.328 -44 427.5 -44C426.672 -44 426 -44.6716 426 -45.5C426 -46.3284 426.672 -47 427.5 -47C428.328 -47 429 -46.3284 429 -45.5Z" fill="#6B7280" fill-opacity="0.6"/>
<path d="M448 -45.5C448 -44.6716 447.328 -44 446.5 -44C445.672 -44 445 -44.6716 445 -45.5C445 -46.3284 445.672 -47 446.5 -47C447.328 -47 448 -46.3284 448 -45.5Z" fill="#6B7280" fill-opacity="0.6"/>
<path d="M467 -45.5C467 -44.6716 466.328 -44 465.5 -44C464.672 -44 464 -44.6716 464 -45.5C464 -46.3284 464.672 -47 465.5 -47C466.328 -47 467 -46.3284 467 -45.5Z" fill="#6B7280" fill-opacity="0.6"/>
<path d="M144 -26.5C144 -25.6716 143.328 -25 142.5 -25C141.672 -25 141 -25.6716 141 -26.5C141 -27.3284 141.672 -28 142.5 -28C143.328 -28 144 -27.3284 144 -26.5Z" fill="#6B7280" fill-opacity="0.6"/>
<path d="M163 -26.5C163 -25.6716 162.328 -25 161.5 -25C160.672 -25 160 -25.6716 160 -26.5C160 -27.3284 160.672 -28 161.5 -28C162.328 -28 163 -27.3284 163 -26.5Z" fill="#6B7280" fill-opacity="0.6"/>
<path d="M182 -26.5C182 -25.6716 181.328 -25 180.5 -25C179.672 -25 179 -25.6716 179 -26.5C179 -27.3284 179.672 -28 180.5 -28C181.328 -28 182 -27.3284 182 -26.5Z" fill="#6B7280" fill-opacity="0.6"/>
<path d="M201 -26.5C201 -25.6716 200.328 -25 199.5 -25C198.672 -25 198 -25.6716 198 -26.5C198 -27.3284 198.672 -28 199.5 -28C200.328 -28 201 -27.3284 201 -26.5Z" fill="#6B7280" fill-opacity="0.6"/>
<path d="M220 -26.5C220 -25.6716 219.328 -25 218.5 -25C217.672 -25 217 -25.6716 217 -26.5C217 -27.3284 217.672 -28 218.5 -28C219.328 -28 220 -27.3284 220 -26.5Z" fill="#6B7280" fill-opacity="0.6"/>
<path d="M239 -26.5C239 -25.6716 238.328 -25 237.5 -25C236.672 -25 236 -25.6716 236 -26.5C236 -27.3284 236.672 -28 237.5 -28C238.328 -28 239 -27.3284 239 -26.5Z" fill="#6B7280" fill-opacity="0.6"/>
<path d="M258 -26.5C258 -25.6716 257.328 -25 256.5 -25C255.672 -25 255 -25.6716 255 -26.5C255 -27.3284 255.672 -28 256.5 -28C257.328 -28 258 -27.3284 258 -26.5Z" fill="#6B7280" fill-opacity="0.6"/>
<path d="M277 -26.5C277 -25.6716 276.328 -25 275.5 -25C274.672 -25 274 -25.6716 274 -26.5C274 -27.3284 274.672 -28 275.5 -28C276.328 -28 277 -27.3284 277 -26.5Z" fill="#6B7280" fill-opacity="0.6"/>
<path d="M296 -26.5C296 -25.6716 295.328 -25 294.5 -25C293.672 -25 293 -25.6716 293 -26.5C293 -27.3284 293.672 -28 294.5 -28C295.328 -28 296 -27.3284 296 -26.5Z" fill="#6B7280" fill-opacity="0.6"/>
<path d="M315 -26.5C315 -25.6716 314.328 -25 313.5 -25C312.672 -25 312 -25.6716 312 -26.5C312 -27.3284 312.672 -28 313.5 -28C314.328 -28 315 -27.3284 315 -26.5Z" fill="#6B7280" fill-opacity="0.6"/>
<path d="M334 -26.5C334 -25.6716 333.328 -25 332.5 -25C331.672 -25 331 -25.6716 331 -26.5C331 -27.3284 331.672 -28 332.5 -28C333.328 -28 334 -27.3284 334 -26.5Z" fill="#6B7280" fill-opacity="0.6"/>
<path d="M353 -26.5C353 -25.6716 352.328 -25 351.5 -25C350.672 -25 350 -25.6716 350 -26.5C350 -27.3284 350.672 -28 351.5 -28C352.328 -28 353 -27.3284 353 -26.5Z" fill="#6B7280" fill-opacity="0.6"/>
<path d="M372 -26.5C372 -25.6716 371.328 -25 370.5 -25C369.672 -25 369 -25.6716 369 -26.5C369 -27.3284 369.672 -28 370.5 -28C371.328 -28 372 -27.3284 372 -26.5Z" fill="#6B7280" fill-opacity="0.6"/>
<path d="M391 -26.5C391 -25.6716 390.328 -25 389.5 -25C388.672 -25 388 -25.6716 388 -26.5C388 -27.3284 388.672 -28 389.5 -28C390.328 -28 391 -27.3284 391 -26.5Z" fill="#6B7280" fill-opacity="0.6"/>
<path d="M410 -26.5C410 -25.6716 409.328 -25 408.5 -25C407.672 -25 407 -25.6716 407 -26.5C407 -27.3284 407.672 -28 408.5 -28C409.328 -28 410 -27.3284 410 -26.5Z" fill="#6B7280" fill-opacity="0.6"/>
<path d="M429 -26.5C429 -25.6716 428.328 -25 427.5 -25C426.672 -25 426 -25.6716 426 -26.5C426 -27.3284 426.672 -28 427.5 -28C428.328 -28 429 -27.3284 429 -26.5Z" fill="#6B7280" fill-opacity="0.6"/>
<path d="M448 -26.5C448 -25.6716 447.328 -25 446.5 -25C445.672 -25 445 -25.6716 445 -26.5C445 -27.3284 445.672 -28 446.5 -28C447.328 -28 448 -27.3284 448 -26.5Z" fill="#6B7280" fill-opacity="0.6"/>
<path d="M467 -26.5C467 -25.6716 466.328 -25 465.5 -25C464.672 -25 464 -25.6716 464 -26.5C464 -27.3284 464.672 -28 465.5 -28C466.328 -28 467 -27.3284 467 -26.5Z" fill="#6B7280" fill-opacity="0.6"/>
<path d="M144 -7.5C144 -6.67157 143.328 -6 142.5 -6C141.672 -6 141 -6.67157 141 -7.5C141 -8.32843 141.672 -9 142.5 -9C143.328 -9 144 -8.32843 144 -7.5Z" fill="#6B7280" fill-opacity="0.6"/>
<path d="M163 -7.5C163 -6.67157 162.328 -6 161.5 -6C160.672 -6 160 -6.67157 160 -7.5C160 -8.32843 160.672 -9 161.5 -9C162.328 -9 163 -8.32843 163 -7.5Z" fill="#6B7280" fill-opacity="0.6"/>
<path d="M182 -7.5C182 -6.67157 181.328 -6 180.5 -6C179.672 -6 179 -6.67157 179 -7.5C179 -8.32843 179.672 -9 180.5 -9C181.328 -9 182 -8.32843 182 -7.5Z" fill="#6B7280" fill-opacity="0.6"/>
<path d="M201 -7.5C201 -6.67157 200.328 -6 199.5 -6C198.672 -6 198 -6.67157 198 -7.5C198 -8.32843 198.672 -9 199.5 -9C200.328 -9 201 -8.32843 201 -7.5Z" fill="#6B7280" fill-opacity="0.6"/>
<path d="M220 -7.5C220 -6.67157 219.328 -6 218.5 -6C217.672 -6 217 -6.67157 217 -7.5C217 -8.32843 217.672 -9 218.5 -9C219.328 -9 220 -8.32843 220 -7.5Z" fill="#6B7280" fill-opacity="0.6"/>
<path d="M239 -7.5C239 -6.67157 238.328 -6 237.5 -6C236.672 -6 236 -6.67157 236 -7.5C236 -8.32843 236.672 -9 237.5 -9C238.328 -9 239 -8.32843 239 -7.5Z" fill="#6B7280" fill-opacity="0.6"/>
<path d="M258 -7.5C258 -6.67157 257.328 -6 256.5 -6C255.672 -6 255 -6.67157 255 -7.5C255 -8.32843 255.672 -9 256.5 -9C257.328 -9 258 -8.32843 258 -7.5Z" fill="#6B7280" fill-opacity="0.6"/>
<path d="M277 -7.5C277 -6.67157 276.328 -6 275.5 -6C274.672 -6 274 -6.67157 274 -7.5C274 -8.32843 274.672 -9 275.5 -9C276.328 -9 277 -8.32843 277 -7.5Z" fill="#6B7280" fill-opacity="0.6"/>
<path d="M296 -7.5C296 -6.67157 295.328 -6 294.5 -6C293.672 -6 293 -6.67157 293 -7.5C293 -8.32843 293.672 -9 294.5 -9C295.328 -9 296 -8.32843 296 -7.5Z" fill="#6B7280" fill-opacity="0.6"/>
<path d="M315 -7.5C315 -6.67157 314.328 -6 313.5 -6C312.672 -6 312 -6.67157 312 -7.5C312 -8.32843 312.672 -9 313.5 -9C314.328 -9 315 -8.32843 315 -7.5Z" fill="#6B7280" fill-opacity="0.6"/>
<path d="M334 -7.5C334 -6.67157 333.328 -6 332.5 -6C331.672 -6 331 -6.67157 331 -7.5C331 -8.32843 331.672 -9 332.5 -9C333.328 -9 334 -8.32843 334 -7.5Z" fill="#6B7280" fill-opacity="0.6"/>
<path d="M353 -7.5C353 -6.67157 352.328 -6 351.5 -6C350.672 -6 350 -6.67157 350 -7.5C350 -8.32843 350.672 -9 351.5 -9C352.328 -9 353 -8.32843 353 -7.5Z" fill="#6B7280" fill-opacity="0.6"/>
<path d="M372 -7.5C372 -6.67157 371.328 -6 370.5 -6C369.672 -6 369 -6.67157 369 -7.5C369 -8.32843 369.672 -9 370.5 -9C371.328 -9 372 -8.32843 372 -7.5Z" fill="#6B7280" fill-opacity="0.6"/>
<path d="M391 -7.5C391 -6.67157 390.328 -6 389.5 -6C388.672 -6 388 -6.67157 388 -7.5C388 -8.32843 388.672 -9 389.5 -9C390.328 -9 391 -8.32843 391 -7.5Z" fill="#6B7280" fill-opacity="0.6"/>
<path d="M410 -7.5C410 -6.67157 409.328 -6 408.5 -6C407.672 -6 407 -6.67157 407 -7.5C407 -8.32843 407.672 -9 408.5 -9C409.328 -9 410 -8.32843 410 -7.5Z" fill="#6B7280" fill-opacity="0.6"/>
<path d="M429 -7.5C429 -6.67157 428.328 -6 427.5 -6C426.672 -6 426 -6.67157 426 -7.5C426 -8.32843 426.672 -9 427.5 -9C428.328 -9 429 -8.32843 429 -7.5Z" fill="#6B7280" fill-opacity="0.6"/>
<path d="M448 -7.5C448 -6.67157 447.328 -6 446.5 -6C445.672 -6 445 -6.67157 445 -7.5C445 -8.32843 445.672 -9 446.5 -9C447.328 -9 448 -8.32843 448 -7.5Z" fill="#6B7280" fill-opacity="0.6"/>
<path d="M467 -7.5C467 -6.67157 466.328 -6 465.5 -6C464.672 -6 464 -6.67157 464 -7.5C464 -8.32843 464.672 -9 465.5 -9C466.328 -9 467 -8.32843 467 -7.5Z" fill="#6B7280" fill-opacity="0.6"/>
<path d="M144 11.5C144 12.3284 143.328 13 142.5 13C141.672 13 141 12.3284 141 11.5C141 10.6716 141.672 10 142.5 10C143.328 10 144 10.6716 144 11.5Z" fill="#6B7280" fill-opacity="0.6"/>
<path d="M163 11.5C163 12.3284 162.328 13 161.5 13C160.672 13 160 12.3284 160 11.5C160 10.6716 160.672 10 161.5 10C162.328 10 163 10.6716 163 11.5Z" fill="#6B7280" fill-opacity="0.6"/>
<path d="M182 11.5C182 12.3284 181.328 13 180.5 13C179.672 13 179 12.3284 179 11.5C179 10.6716 179.672 10 180.5 10C181.328 10 182 10.6716 182 11.5Z" fill="#6B7280" fill-opacity="0.6"/>
<path d="M201 11.5C201 12.3284 200.328 13 199.5 13C198.672 13 198 12.3284 198 11.5C198 10.6716 198.672 10 199.5 10C200.328 10 201 10.6716 201 11.5Z" fill="#6B7280" fill-opacity="0.6"/>
<path d="M220 11.5C220 12.3284 219.328 13 218.5 13C217.672 13 217 12.3284 217 11.5C217 10.6716 217.672 10 218.5 10C219.328 10 220 10.6716 220 11.5Z" fill="#6B7280" fill-opacity="0.6"/>
<path d="M239 11.5C239 12.3284 238.328 13 237.5 13C236.672 13 236 12.3284 236 11.5C236 10.6716 236.672 10 237.5 10C238.328 10 239 10.6716 239 11.5Z" fill="#6B7280" fill-opacity="0.6"/>
<path d="M258 11.5C258 12.3284 257.328 13 256.5 13C255.672 13 255 12.3284 255 11.5C255 10.6716 255.672 10 256.5 10C257.328 10 258 10.6716 258 11.5Z" fill="#6B7280" fill-opacity="0.6"/>
<path d="M277 11.5C277 12.3284 276.328 13 275.5 13C274.672 13 274 12.3284 274 11.5C274 10.6716 274.672 10 275.5 10C276.328 10 277 10.6716 277 11.5Z" fill="#6B7280" fill-opacity="0.6"/>
<path d="M296 11.5C296 12.3284 295.328 13 294.5 13C293.672 13 293 12.3284 293 11.5C293 10.6716 293.672 10 294.5 10C295.328 10 296 10.6716 296 11.5Z" fill="#6B7280" fill-opacity="0.6"/>
<path d="M315 11.5C315 12.3284 314.328 13 313.5 13C312.672 13 312 12.3284 312 11.5C312 10.6716 312.672 10 313.5 10C314.328 10 315 10.6716 315 11.5Z" fill="#6B7280" fill-opacity="0.6"/>
<path d="M334 11.5C334 12.3284 333.328 13 332.5 13C331.672 13 331 12.3284 331 11.5C331 10.6716 331.672 10 332.5 10C333.328 10 334 10.6716 334 11.5Z" fill="#6B7280" fill-opacity="0.6"/>
<path d="M353 11.5C353 12.3284 352.328 13 351.5 13C350.672 13 350 12.3284 350 11.5C350 10.6716 350.672 10 351.5 10C352.328 10 353 10.6716 353 11.5Z" fill="#6B7280" fill-opacity="0.6"/>
<path d="M372 11.5C372 12.3284 371.328 13 370.5 13C369.672 13 369 12.3284 369 11.5C369 10.6716 369.672 10 370.5 10C371.328 10 372 10.6716 372 11.5Z" fill="#6B7280" fill-opacity="0.6"/>
<path d="M391 11.5C391 12.3284 390.328 13 389.5 13C388.672 13 388 12.3284 388 11.5C388 10.6716 388.672 10 389.5 10C390.328 10 391 10.6716 391 11.5Z" fill="#6B7280" fill-opacity="0.6"/>
<path d="M410 11.5C410 12.3284 409.328 13 408.5 13C407.672 13 407 12.3284 407 11.5C407 10.6716 407.672 10 408.5 10C409.328 10 410 10.6716 410 11.5Z" fill="#6B7280" fill-opacity="0.6"/>
<path d="M429 11.5C429 12.3284 428.328 13 427.5 13C426.672 13 426 12.3284 426 11.5C426 10.6716 426.672 10 427.5 10C428.328 10 429 10.6716 429 11.5Z" fill="#6B7280" fill-opacity="0.6"/>
<path d="M448 11.5C448 12.3284 447.328 13 446.5 13C445.672 13 445 12.3284 445 11.5C445 10.6716 445.672 10 446.5 10C447.328 10 448 10.6716 448 11.5Z" fill="#6B7280" fill-opacity="0.6"/>
<path d="M467 11.5C467 12.3284 466.328 13 465.5 13C464.672 13 464 12.3284 464 11.5C464 10.6716 464.672 10 465.5 10C466.328 10 467 10.6716 467 11.5Z" fill="#6B7280" fill-opacity="0.6"/>
<path d="M144 30.5C144 31.3284 143.328 32 142.5 32C141.672 32 141 31.3284 141 30.5C141 29.6716 141.672 29 142.5 29C143.328 29 144 29.6716 144 30.5Z" fill="#6B7280" fill-opacity="0.6"/>
<path d="M163 30.5C163 31.3284 162.328 32 161.5 32C160.672 32 160 31.3284 160 30.5C160 29.6716 160.672 29 161.5 29C162.328 29 163 29.6716 163 30.5Z" fill="#6B7280" fill-opacity="0.6"/>
<path d="M182 30.5C182 31.3284 181.328 32 180.5 32C179.672 32 179 31.3284 179 30.5C179 29.6716 179.672 29 180.5 29C181.328 29 182 29.6716 182 30.5Z" fill="#6B7280" fill-opacity="0.6"/>
<path d="M201 30.5C201 31.3284 200.328 32 199.5 32C198.672 32 198 31.3284 198 30.5C198 29.6716 198.672 29 199.5 29C200.328 29 201 29.6716 201 30.5Z" fill="#6B7280" fill-opacity="0.6"/>
<path d="M220 30.5C220 31.3284 219.328 32 218.5 32C217.672 32 217 31.3284 217 30.5C217 29.6716 217.672 29 218.5 29C219.328 29 220 29.6716 220 30.5Z" fill="#6B7280" fill-opacity="0.6"/>
<path d="M239 30.5C239 31.3284 238.328 32 237.5 32C236.672 32 236 31.3284 236 30.5C236 29.6716 236.672 29 237.5 29C238.328 29 239 29.6716 239 30.5Z" fill="#6B7280" fill-opacity="0.6"/>
<path d="M258 30.5C258 31.3284 257.328 32 256.5 32C255.672 32 255 31.3284 255 30.5C255 29.6716 255.672 29 256.5 29C257.328 29 258 29.6716 258 30.5Z" fill="#6B7280" fill-opacity="0.6"/>
<path d="M277 30.5C277 31.3284 276.328 32 275.5 32C274.672 32 274 31.3284 274 30.5C274 29.6716 274.672 29 275.5 29C276.328 29 277 29.6716 277 30.5Z" fill="#6B7280" fill-opacity="0.6"/>
<path d="M296 30.5C296 31.3284 295.328 32 294.5 32C293.672 32 293 31.3284 293 30.5C293 29.6716 293.672 29 294.5 29C295.328 29 296 29.6716 296 30.5Z" fill="#6B7280" fill-opacity="0.6"/>
<path d="M315 30.5C315 31.3284 314.328 32 313.5 32C312.672 32 312 31.3284 312 30.5C312 29.6716 312.672 29 313.5 29C314.328 29 315 29.6716 315 30.5Z" fill="#6B7280" fill-opacity="0.6"/>
<path d="M334 30.5C334 31.3284 333.328 32 332.5 32C331.672 32 331 31.3284 331 30.5C331 29.6716 331.672 29 332.5 29C333.328 29 334 29.6716 334 30.5Z" fill="#6B7280" fill-opacity="0.6"/>
<path d="M353 30.5C353 31.3284 352.328 32 351.5 32C350.672 32 350 31.3284 350 30.5C350 29.6716 350.672 29 351.5 29C352.328 29 353 29.6716 353 30.5Z" fill="#6B7280" fill-opacity="0.6"/>
<path d="M372 30.5C372 31.3284 371.328 32 370.5 32C369.672 32 369 31.3284 369 30.5C369 29.6716 369.672 29 370.5 29C371.328 29 372 29.6716 372 30.5Z" fill="#6B7280" fill-opacity="0.6"/>
<path d="M391 30.5C391 31.3284 390.328 32 389.5 32C388.672 32 388 31.3284 388 30.5C388 29.6716 388.672 29 389.5 29C390.328 29 391 29.6716 391 30.5Z" fill="#6B7280" fill-opacity="0.6"/>
<path d="M410 30.5C410 31.3284 409.328 32 408.5 32C407.672 32 407 31.3284 407 30.5C407 29.6716 407.672 29 408.5 29C409.328 29 410 29.6716 410 30.5Z" fill="#6B7280" fill-opacity="0.6"/>
<path d="M429 30.5C429 31.3284 428.328 32 427.5 32C426.672 32 426 31.3284 426 30.5C426 29.6716 426.672 29 427.5 29C428.328 29 429 29.6716 429 30.5Z" fill="#6B7280" fill-opacity="0.6"/>
<path d="M448 30.5C448 31.3284 447.328 32 446.5 32C445.672 32 445 31.3284 445 30.5C445 29.6716 445.672 29 446.5 29C447.328 29 448 29.6716 448 30.5Z" fill="#6B7280" fill-opacity="0.6"/>
<path d="M467 30.5C467 31.3284 466.328 32 465.5 32C464.672 32 464 31.3284 464 30.5C464 29.6716 464.672 29 465.5 29C466.328 29 467 29.6716 467 30.5Z" fill="#6B7280" fill-opacity="0.6"/>
<path d="M144 49.5C144 50.3284 143.328 51 142.5 51C141.672 51 141 50.3284 141 49.5C141 48.6716 141.672 48 142.5 48C143.328 48 144 48.6716 144 49.5Z" fill="#6B7280" fill-opacity="0.6"/>
<path d="M163 49.5C163 50.3284 162.328 51 161.5 51C160.672 51 160 50.3284 160 49.5C160 48.6716 160.672 48 161.5 48C162.328 48 163 48.6716 163 49.5Z" fill="#6B7280" fill-opacity="0.6"/>
<path d="M182 49.5C182 50.3284 181.328 51 180.5 51C179.672 51 179 50.3284 179 49.5C179 48.6716 179.672 48 180.5 48C181.328 48 182 48.6716 182 49.5Z" fill="#6B7280" fill-opacity="0.6"/>
<path d="M201 49.5C201 50.3284 200.328 51 199.5 51C198.672 51 198 50.3284 198 49.5C198 48.6716 198.672 48 199.5 48C200.328 48 201 48.6716 201 49.5Z" fill="#6B7280" fill-opacity="0.6"/>
<path d="M220 49.5C220 50.3284 219.328 51 218.5 51C217.672 51 217 50.3284 217 49.5C217 48.6716 217.672 48 218.5 48C219.328 48 220 48.6716 220 49.5Z" fill="#6B7280" fill-opacity="0.6"/>
<path d="M239 49.5C239 50.3284 238.328 51 237.5 51C236.672 51 236 50.3284 236 49.5C236 48.6716 236.672 48 237.5 48C238.328 48 239 48.6716 239 49.5Z" fill="#6B7280" fill-opacity="0.6"/>
<path d="M258 49.5C258 50.3284 257.328 51 256.5 51C255.672 51 255 50.3284 255 49.5C255 48.6716 255.672 48 256.5 48C257.328 48 258 48.6716 258 49.5Z" fill="#6B7280" fill-opacity="0.6"/>
<path d="M353 49.5C353 50.3284 352.328 51 351.5 51C350.672 51 350 50.3284 350 49.5C350 48.6716 350.672 48 351.5 48C352.328 48 353 48.6716 353 49.5Z" fill="#6B7280" fill-opacity="0.6"/>
<path d="M372 49.5C372 50.3284 371.328 51 370.5 51C369.672 51 369 50.3284 369 49.5C369 48.6716 369.672 48 370.5 48C371.328 48 372 48.6716 372 49.5Z" fill="#6B7280" fill-opacity="0.6"/>
<path d="M391 49.5C391 50.3284 390.328 51 389.5 51C388.672 51 388 50.3284 388 49.5C388 48.6716 388.672 48 389.5 48C390.328 48 391 48.6716 391 49.5Z" fill="#6B7280" fill-opacity="0.6"/>
<path d="M410 49.5C410 50.3284 409.328 51 408.5 51C407.672 51 407 50.3284 407 49.5C407 48.6716 407.672 48 408.5 48C409.328 48 410 48.6716 410 49.5Z" fill="#6B7280" fill-opacity="0.6"/>
<path d="M429 49.5C429 50.3284 428.328 51 427.5 51C426.672 51 426 50.3284 426 49.5C426 48.6716 426.672 48 427.5 48C428.328 48 429 48.6716 429 49.5Z" fill="#6B7280" fill-opacity="0.6"/>
<path d="M448 49.5C448 50.3284 447.328 51 446.5 51C445.672 51 445 50.3284 445 49.5C445 48.6716 445.672 48 446.5 48C447.328 48 448 48.6716 448 49.5Z" fill="#6B7280" fill-opacity="0.6"/>
<path d="M467 49.5C467 50.3284 466.328 51 465.5 51C464.672 51 464 50.3284 464 49.5C464 48.6716 464.672 48 465.5 48C466.328 48 467 48.6716 467 49.5Z" fill="#6B7280" fill-opacity="0.6"/>
<path d="M144 68.5C144 69.3284 143.328 70 142.5 70C141.672 70 141 69.3284 141 68.5C141 67.6716 141.672 67 142.5 67C143.328 67 144 67.6716 144 68.5Z" fill="#6B7280" fill-opacity="0.6"/>
<path d="M163 68.5C163 69.3284 162.328 70 161.5 70C160.672 70 160 69.3284 160 68.5C160 67.6716 160.672 67 161.5 67C162.328 67 163 67.6716 163 68.5Z" fill="#6B7280" fill-opacity="0.6"/>
<path d="M182 68.5C182 69.3284 181.328 70 180.5 70C179.672 70 179 69.3284 179 68.5C179 67.6716 179.672 67 180.5 67C181.328 67 182 67.6716 182 68.5Z" fill="#6B7280" fill-opacity="0.6"/>
<path d="M201 68.5C201 69.3284 200.328 70 199.5 70C198.672 70 198 69.3284 198 68.5C198 67.6716 198.672 67 199.5 67C200.328 67 201 67.6716 201 68.5Z" fill="#6B7280" fill-opacity="0.6"/>
<path d="M220 68.5C220 69.3284 219.328 70 218.5 70C217.672 70 217 69.3284 217 68.5C217 67.6716 217.672 67 218.5 67C219.328 67 220 67.6716 220 68.5Z" fill="#6B7280" fill-opacity="0.6"/>
<path d="M239 68.5C239 69.3284 238.328 70 237.5 70C236.672 70 236 69.3284 236 68.5C236 67.6716 236.672 67 237.5 67C238.328 67 239 67.6716 239 68.5Z" fill="#6B7280" fill-opacity="0.6"/>
<path d="M372 68.5C372 69.3284 371.328 70 370.5 70C369.672 70 369 69.3284 369 68.5C369 67.6716 369.672 67 370.5 67C371.328 67 372 67.6716 372 68.5Z" fill="#6B7280" fill-opacity="0.6"/>
<path d="M391 68.5C391 69.3284 390.328 70 389.5 70C388.672 70 388 69.3284 388 68.5C388 67.6716 388.672 67 389.5 67C390.328 67 391 67.6716 391 68.5Z" fill="#6B7280" fill-opacity="0.6"/>
<path d="M410 68.5C410 69.3284 409.328 70 408.5 70C407.672 70 407 69.3284 407 68.5C407 67.6716 407.672 67 408.5 67C409.328 67 410 67.6716 410 68.5Z" fill="#6B7280" fill-opacity="0.6"/>
<path d="M429 68.5C429 69.3284 428.328 70 427.5 70C426.672 70 426 69.3284 426 68.5C426 67.6716 426.672 67 427.5 67C428.328 67 429 67.6716 429 68.5Z" fill="#6B7280" fill-opacity="0.6"/>
<path d="M448 68.5C448 69.3284 447.328 70 446.5 70C445.672 70 445 69.3284 445 68.5C445 67.6716 445.672 67 446.5 67C447.328 67 448 67.6716 448 68.5Z" fill="#6B7280" fill-opacity="0.6"/>
<path d="M467 68.5C467 69.3284 466.328 70 465.5 70C464.672 70 464 69.3284 464 68.5C464 67.6716 464.672 67 465.5 67C466.328 67 467 67.6716 467 68.5Z" fill="#6B7280" fill-opacity="0.6"/>
<path d="M144 87.5C144 88.3284 143.328 89 142.5 89C141.672 89 141 88.3284 141 87.5C141 86.6716 141.672 86 142.5 86C143.328 86 144 86.6716 144 87.5Z" fill="#6B7280" fill-opacity="0.6"/>
<path d="M163 87.5C163 88.3284 162.328 89 161.5 89C160.672 89 160 88.3284 160 87.5C160 86.6716 160.672 86 161.5 86C162.328 86 163 86.6716 163 87.5Z" fill="#6B7280" fill-opacity="0.6"/>
<path d="M182 87.5C182 88.3284 181.328 89 180.5 89C179.672 89 179 88.3284 179 87.5C179 86.6716 179.672 86 180.5 86C181.328 86 182 86.6716 182 87.5Z" fill="#6B7280" fill-opacity="0.6"/>
<path d="M201 87.5C201 88.3284 200.328 89 199.5 89C198.672 89 198 88.3284 198 87.5C198 86.6716 198.672 86 199.5 86C200.328 86 201 86.6716 201 87.5Z" fill="#6B7280" fill-opacity="0.6"/>
<path d="M220 87.5C220 88.3284 219.328 89 218.5 89C217.672 89 217 88.3284 217 87.5C217 86.6716 217.672 86 218.5 86C219.328 86 220 86.6716 220 87.5Z" fill="#6B7280" fill-opacity="0.6"/>
<path d="M239 87.5C239 88.3284 238.328 89 237.5 89C236.672 89 236 88.3284 236 87.5C236 86.6716 236.672 86 237.5 86C238.328 86 239 86.6716 239 87.5Z" fill="#6B7280" fill-opacity="0.6"/>
<path d="M372 87.5C372 88.3284 371.328 89 370.5 89C369.672 89 369 88.3284 369 87.5C369 86.6716 369.672 86 370.5 86C371.328 86 372 86.6716 372 87.5Z" fill="#6B7280" fill-opacity="0.6"/>
<path d="M391 87.5C391 88.3284 390.328 89 389.5 89C388.672 89 388 88.3284 388 87.5C388 86.6716 388.672 86 389.5 86C390.328 86 391 86.6716 391 87.5Z" fill="#6B7280" fill-opacity="0.6"/>
<path d="M410 87.5C410 88.3284 409.328 89 408.5 89C407.672 89 407 88.3284 407 87.5C407 86.6716 407.672 86 408.5 86C409.328 86 410 86.6716 410 87.5Z" fill="#6B7280" fill-opacity="0.6"/>
<path d="M429 87.5C429 88.3284 428.328 89 427.5 89C426.672 89 426 88.3284 426 87.5C426 86.6716 426.672 86 427.5 86C428.328 86 429 86.6716 429 87.5Z" fill="#6B7280" fill-opacity="0.6"/>
<path d="M448 87.5C448 88.3284 447.328 89 446.5 89C445.672 89 445 88.3284 445 87.5C445 86.6716 445.672 86 446.5 86C447.328 86 448 86.6716 448 87.5Z" fill="#6B7280" fill-opacity="0.6"/>
<path d="M467 87.5C467 88.3284 466.328 89 465.5 89C464.672 89 464 88.3284 464 87.5C464 86.6716 464.672 86 465.5 86C466.328 86 467 86.6716 467 87.5Z" fill="#6B7280" fill-opacity="0.6"/>
<path d="M144 106.5C144 107.328 143.328 108 142.5 108C141.672 108 141 107.328 141 106.5C141 105.672 141.672 105 142.5 105C143.328 105 144 105.672 144 106.5Z" fill="#6B7280" fill-opacity="0.6"/>
<path d="M163 106.5C163 107.328 162.328 108 161.5 108C160.672 108 160 107.328 160 106.5C160 105.672 160.672 105 161.5 105C162.328 105 163 105.672 163 106.5Z" fill="#6B7280" fill-opacity="0.6"/>
<path d="M182 106.5C182 107.328 181.328 108 180.5 108C179.672 108 179 107.328 179 106.5C179 105.672 179.672 105 180.5 105C181.328 105 182 105.672 182 106.5Z" fill="#6B7280" fill-opacity="0.6"/>
<path d="M201 106.5C201 107.328 200.328 108 199.5 108C198.672 108 198 107.328 198 106.5C198 105.672 198.672 105 199.5 105C200.328 105 201 105.672 201 106.5Z" fill="#6B7280" fill-opacity="0.6"/>
<path d="M220 106.5C220 107.328 219.328 108 218.5 108C217.672 108 217 107.328 217 106.5C217 105.672 217.672 105 218.5 105C219.328 105 220 105.672 220 106.5Z" fill="#6B7280" fill-opacity="0.6"/>
<path d="M239 106.5C239 107.328 238.328 108 237.5 108C236.672 108 236 107.328 236 106.5C236 105.672 236.672 105 237.5 105C238.328 105 239 105.672 239 106.5Z" fill="#6B7280" fill-opacity="0.6"/>
<path d="M372 106.5C372 107.328 371.328 108 370.5 108C369.672 108 369 107.328 369 106.5C369 105.672 369.672 105 370.5 105C371.328 105 372 105.672 372 106.5Z" fill="#6B7280" fill-opacity="0.6"/>
<path d="M391 106.5C391 107.328 390.328 108 389.5 108C388.672 108 388 107.328 388 106.5C388 105.672 388.672 105 389.5 105C390.328 105 391 105.672 391 106.5Z" fill="#6B7280" fill-opacity="0.6"/>
<path d="M410 106.5C410 107.328 409.328 108 408.5 108C407.672 108 407 107.328 407 106.5C407 105.672 407.672 105 408.5 105C409.328 105 410 105.672 410 106.5Z" fill="#6B7280" fill-opacity="0.6"/>
<path d="M429 106.5C429 107.328 428.328 108 427.5 108C426.672 108 426 107.328 426 106.5C426 105.672 426.672 105 427.5 105C428.328 105 429 105.672 429 106.5Z" fill="#6B7280" fill-opacity="0.6"/>
<path d="M448 106.5C448 107.328 447.328 108 446.5 108C445.672 108 445 107.328 445 106.5C445 105.672 445.672 105 446.5 105C447.328 105 448 105.672 448 106.5Z" fill="#6B7280" fill-opacity="0.6"/>
<path d="M467 106.5C467 107.328 466.328 108 465.5 108C464.672 108 464 107.328 464 106.5C464 105.672 464.672 105 465.5 105C466.328 105 467 105.672 467 106.5Z" fill="#6B7280" fill-opacity="0.6"/>
<path d="M144 125.5C144 126.328 143.328 127 142.5 127C141.672 127 141 126.328 141 125.5C141 124.672 141.672 124 142.5 124C143.328 124 144 124.672 144 125.5Z" fill="#6B7280" fill-opacity="0.6"/>
<path d="M163 125.5C163 126.328 162.328 127 161.5 127C160.672 127 160 126.328 160 125.5C160 124.672 160.672 124 161.5 124C162.328 124 163 124.672 163 125.5Z" fill="#6B7280" fill-opacity="0.6"/>
<path d="M182 125.5C182 126.328 181.328 127 180.5 127C179.672 127 179 126.328 179 125.5C179 124.672 179.672 124 180.5 124C181.328 124 182 124.672 182 125.5Z" fill="#6B7280" fill-opacity="0.6"/>
<path d="M201 125.5C201 126.328 200.328 127 199.5 127C198.672 127 198 126.328 198 125.5C198 124.672 198.672 124 199.5 124C200.328 124 201 124.672 201 125.5Z" fill="#6B7280" fill-opacity="0.6"/>
<path d="M220 125.5C220 126.328 219.328 127 218.5 127C217.672 127 217 126.328 217 125.5C217 124.672 217.672 124 218.5 124C219.328 124 220 124.672 220 125.5Z" fill="#6B7280" fill-opacity="0.6"/>
<path d="M239 125.5C239 126.328 238.328 127 237.5 127C236.672 127 236 126.328 236 125.5C236 124.672 236.672 124 237.5 124C238.328 124 239 124.672 239 125.5Z" fill="#6B7280" fill-opacity="0.6"/>
<path d="M372 125.5C372 126.328 371.328 127 370.5 127C369.672 127 369 126.328 369 125.5C369 124.672 369.672 124 370.5 124C371.328 124 372 124.672 372 125.5Z" fill="#6B7280" fill-opacity="0.6"/>
<path d="M391 125.5C391 126.328 390.328 127 389.5 127C388.672 127 388 126.328 388 125.5C388 124.672 388.672 124 389.5 124C390.328 124 391 124.672 391 125.5Z" fill="#6B7280" fill-opacity="0.6"/>
<path d="M410 125.5C410 126.328 409.328 127 408.5 127C407.672 127 407 126.328 407 125.5C407 124.672 407.672 124 408.5 124C409.328 124 410 124.672 410 125.5Z" fill="#6B7280" fill-opacity="0.6"/>
<path d="M429 125.5C429 126.328 428.328 127 427.5 127C426.672 127 426 126.328 426 125.5C426 124.672 426.672 124 427.5 124C428.328 124 429 124.672 429 125.5Z" fill="#6B7280" fill-opacity="0.6"/>
<path d="M448 125.5C448 126.328 447.328 127 446.5 127C445.672 127 445 126.328 445 125.5C445 124.672 445.672 124 446.5 124C447.328 124 448 124.672 448 125.5Z" fill="#6B7280" fill-opacity="0.6"/>
<path d="M467 125.5C467 126.328 466.328 127 465.5 127C464.672 127 464 126.328 464 125.5C464 124.672 464.672 124 465.5 124C466.328 124 467 124.672 467 125.5Z" fill="#6B7280" fill-opacity="0.6"/>
<path d="M144 144.5C144 145.328 143.328 146 142.5 146C141.672 146 141 145.328 141 144.5C141 143.672 141.672 143 142.5 143C143.328 143 144 143.672 144 144.5Z" fill="#6B7280" fill-opacity="0.6"/>
<path d="M163 144.5C163 145.328 162.328 146 161.5 146C160.672 146 160 145.328 160 144.5C160 143.672 160.672 143 161.5 143C162.328 143 163 143.672 163 144.5Z" fill="#6B7280" fill-opacity="0.6"/>
<path d="M182 144.5C182 145.328 181.328 146 180.5 146C179.672 146 179 145.328 179 144.5C179 143.672 179.672 143 180.5 143C181.328 143 182 143.672 182 144.5Z" fill="#6B7280" fill-opacity="0.6"/>
<path d="M201 144.5C201 145.328 200.328 146 199.5 146C198.672 146 198 145.328 198 144.5C198 143.672 198.672 143 199.5 143C200.328 143 201 143.672 201 144.5Z" fill="#6B7280" fill-opacity="0.6"/>
<path d="M220 144.5C220 145.328 219.328 146 218.5 146C217.672 146 217 145.328 217 144.5C217 143.672 217.672 143 218.5 143C219.328 143 220 143.672 220 144.5Z" fill="#6B7280" fill-opacity="0.6"/>
<path d="M239 144.5C239 145.328 238.328 146 237.5 146C236.672 146 236 145.328 236 144.5C236 143.672 236.672 143 237.5 143C238.328 143 239 143.672 239 144.5Z" fill="#6B7280" fill-opacity="0.6"/>
<path d="M258 144.5C258 145.328 257.328 146 256.5 146C255.672 146 255 145.328 255 144.5C255 143.672 255.672 143 256.5 143C257.328 143 258 143.672 258 144.5Z" fill="#6B7280" fill-opacity="0.6"/>
<path d="M353 144.5C353 145.328 352.328 146 351.5 146C350.672 146 350 145.328 350 144.5C350 143.672 350.672 143 351.5 143C352.328 143 353 143.672 353 144.5Z" fill="#6B7280" fill-opacity="0.6"/>
<path d="M372 144.5C372 145.328 371.328 146 370.5 146C369.672 146 369 145.328 369 144.5C369 143.672 369.672 143 370.5 143C371.328 143 372 143.672 372 144.5Z" fill="#6B7280" fill-opacity="0.6"/>
<path d="M391 144.5C391 145.328 390.328 146 389.5 146C388.672 146 388 145.328 388 144.5C388 143.672 388.672 143 389.5 143C390.328 143 391 143.672 391 144.5Z" fill="#6B7280" fill-opacity="0.6"/>
<path d="M410 144.5C410 145.328 409.328 146 408.5 146C407.672 146 407 145.328 407 144.5C407 143.672 407.672 143 408.5 143C409.328 143 410 143.672 410 144.5Z" fill="#6B7280" fill-opacity="0.6"/>
<path d="M429 144.5C429 145.328 428.328 146 427.5 146C426.672 146 426 145.328 426 144.5C426 143.672 426.672 143 427.5 143C428.328 143 429 143.672 429 144.5Z" fill="#6B7280" fill-opacity="0.6"/>
<path d="M448 144.5C448 145.328 447.328 146 446.5 146C445.672 146 445 145.328 445 144.5C445 143.672 445.672 143 446.5 143C447.328 143 448 143.672 448 144.5Z" fill="#6B7280" fill-opacity="0.6"/>
<path d="M467 144.5C467 145.328 466.328 146 465.5 146C464.672 146 464 145.328 464 144.5C464 143.672 464.672 143 465.5 143C466.328 143 467 143.672 467 144.5Z" fill="#6B7280" fill-opacity="0.6"/>
<path d="M144 163.5C144 164.328 143.328 165 142.5 165C141.672 165 141 164.328 141 163.5C141 162.672 141.672 162 142.5 162C143.328 162 144 162.672 144 163.5Z" fill="#6B7280" fill-opacity="0.6"/>
<path d="M163 163.5C163 164.328 162.328 165 161.5 165C160.672 165 160 164.328 160 163.5C160 162.672 160.672 162 161.5 162C162.328 162 163 162.672 163 163.5Z" fill="#6B7280" fill-opacity="0.6"/>
<path d="M182 163.5C182 164.328 181.328 165 180.5 165C179.672 165 179 164.328 179 163.5C179 162.672 179.672 162 180.5 162C181.328 162 182 162.672 182 163.5Z" fill="#6B7280" fill-opacity="0.6"/>
<path d="M201 163.5C201 164.328 200.328 165 199.5 165C198.672 165 198 164.328 198 163.5C198 162.672 198.672 162 199.5 162C200.328 162 201 162.672 201 163.5Z" fill="#6B7280" fill-opacity="0.6"/>
<path d="M220 163.5C220 164.328 219.328 165 218.5 165C217.672 165 217 164.328 217 163.5C217 162.672 217.672 162 218.5 162C219.328 162 220 162.672 220 163.5Z" fill="#6B7280" fill-opacity="0.6"/>
<path d="M239 163.5C239 164.328 238.328 165 237.5 165C236.672 165 236 164.328 236 163.5C236 162.672 236.672 162 237.5 162C238.328 162 239 162.672 239 163.5Z" fill="#6B7280" fill-opacity="0.6"/>
<path d="M258 163.5C258 164.328 257.328 165 256.5 165C255.672 165 255 164.328 255 163.5C255 162.672 255.672 162 256.5 162C257.328 162 258 162.672 258 163.5Z" fill="#6B7280" fill-opacity="0.6"/>
<path d="M277 163.5C277 164.328 276.328 165 275.5 165C274.672 165 274 164.328 274 163.5C274 162.672 274.672 162 275.5 162C276.328 162 277 162.672 277 163.5Z" fill="#6B7280" fill-opacity="0.6"/>
<path d="M296 163.5C296 164.328 295.328 165 294.5 165C293.672 165 293 164.328 293 163.5C293 162.672 293.672 162 294.5 162C295.328 162 296 162.672 296 163.5Z" fill="#6B7280" fill-opacity="0.6"/>
<path d="M315 163.5C315 164.328 314.328 165 313.5 165C312.672 165 312 164.328 312 163.5C312 162.672 312.672 162 313.5 162C314.328 162 315 162.672 315 163.5Z" fill="#6B7280" fill-opacity="0.6"/>
<path d="M334 163.5C334 164.328 333.328 165 332.5 165C331.672 165 331 164.328 331 163.5C331 162.672 331.672 162 332.5 162C333.328 162 334 162.672 334 163.5Z" fill="#6B7280" fill-opacity="0.6"/>
<path d="M353 163.5C353 164.328 352.328 165 351.5 165C350.672 165 350 164.328 350 163.5C350 162.672 350.672 162 351.5 162C352.328 162 353 162.672 353 163.5Z" fill="#6B7280" fill-opacity="0.6"/>
<path d="M372 163.5C372 164.328 371.328 165 370.5 165C369.672 165 369 164.328 369 163.5C369 162.672 369.672 162 370.5 162C371.328 162 372 162.672 372 163.5Z" fill="#6B7280" fill-opacity="0.6"/>
<path d="M391 163.5C391 164.328 390.328 165 389.5 165C388.672 165 388 164.328 388 163.5C388 162.672 388.672 162 389.5 162C390.328 162 391 162.672 391 163.5Z" fill="#6B7280" fill-opacity="0.6"/>
<path d="M410 163.5C410 164.328 409.328 165 408.5 165C407.672 165 407 164.328 407 163.5C407 162.672 407.672 162 408.5 162C409.328 162 410 162.672 410 163.5Z" fill="#6B7280" fill-opacity="0.6"/>
<path d="M429 163.5C429 164.328 428.328 165 427.5 165C426.672 165 426 164.328 426 163.5C426 162.672 426.672 162 427.5 162C428.328 162 429 162.672 429 163.5Z" fill="#6B7280" fill-opacity="0.6"/>
<path d="M448 163.5C448 164.328 447.328 165 446.5 165C445.672 165 445 164.328 445 163.5C445 162.672 445.672 162 446.5 162C447.328 162 448 162.672 448 163.5Z" fill="#6B7280" fill-opacity="0.6"/>
<path d="M467 163.5C467 164.328 466.328 165 465.5 165C464.672 165 464 164.328 464 163.5C464 162.672 464.672 162 465.5 162C466.328 162 467 162.672 467 163.5Z" fill="#6B7280" fill-opacity="0.6"/>
<path d="M144 182.5C144 183.328 143.328 184 142.5 184C141.672 184 141 183.328 141 182.5C141 181.672 141.672 181 142.5 181C143.328 181 144 181.672 144 182.5Z" fill="#6B7280" fill-opacity="0.6"/>
<path d="M163 182.5C163 183.328 162.328 184 161.5 184C160.672 184 160 183.328 160 182.5C160 181.672 160.672 181 161.5 181C162.328 181 163 181.672 163 182.5Z" fill="#6B7280" fill-opacity="0.6"/>
<path d="M182 182.5C182 183.328 181.328 184 180.5 184C179.672 184 179 183.328 179 182.5C179 181.672 179.672 181 180.5 181C181.328 181 182 181.672 182 182.5Z" fill="#6B7280" fill-opacity="0.6"/>
<path d="M201 182.5C201 183.328 200.328 184 199.5 184C198.672 184 198 183.328 198 182.5C198 181.672 198.672 181 199.5 181C200.328 181 201 181.672 201 182.5Z" fill="#6B7280" fill-opacity="0.6"/>
<path d="M220 182.5C220 183.328 219.328 184 218.5 184C217.672 184 217 183.328 217 182.5C217 181.672 217.672 181 218.5 181C219.328 181 220 181.672 220 182.5Z" fill="#6B7280" fill-opacity="0.6"/>
<path d="M239 182.5C239 183.328 238.328 184 237.5 184C236.672 184 236 183.328 236 182.5C236 181.672 236.672 181 237.5 181C238.328 181 239 181.672 239 182.5Z" fill="#6B7280" fill-opacity="0.6"/>
<path d="M258 182.5C258 183.328 257.328 184 256.5 184C255.672 184 255 183.328 255 182.5C255 181.672 255.672 181 256.5 181C257.328 181 258 181.672 258 182.5Z" fill="#6B7280" fill-opacity="0.6"/>
<path d="M277 182.5C277 183.328 276.328 184 275.5 184C274.672 184 274 183.328 274 182.5C274 181.672 274.672 181 275.5 181C276.328 181 277 181.672 277 182.5Z" fill="#6B7280" fill-opacity="0.6"/>
<path d="M296 182.5C296 183.328 295.328 184 294.5 184C293.672 184 293 183.328 293 182.5C293 181.672 293.672 181 294.5 181C295.328 181 296 181.672 296 182.5Z" fill="#6B7280" fill-opacity="0.6"/>
<path d="M315 182.5C315 183.328 314.328 184 313.5 184C312.672 184 312 183.328 312 182.5C312 181.672 312.672 181 313.5 181C314.328 181 315 181.672 315 182.5Z" fill="#6B7280" fill-opacity="0.6"/>
<path d="M334 182.5C334 183.328 333.328 184 332.5 184C331.672 184 331 183.328 331 182.5C331 181.672 331.672 181 332.5 181C333.328 181 334 181.672 334 182.5Z" fill="#6B7280" fill-opacity="0.6"/>
<path d="M353 182.5C353 183.328 352.328 184 351.5 184C350.672 184 350 183.328 350 182.5C350 181.672 350.672 181 351.5 181C352.328 181 353 181.672 353 182.5Z" fill="#6B7280" fill-opacity="0.6"/>
<path d="M372 182.5C372 183.328 371.328 184 370.5 184C369.672 184 369 183.328 369 182.5C369 181.672 369.672 181 370.5 181C371.328 181 372 181.672 372 182.5Z" fill="#6B7280" fill-opacity="0.6"/>
<path d="M391 182.5C391 183.328 390.328 184 389.5 184C388.672 184 388 183.328 388 182.5C388 181.672 388.672 181 389.5 181C390.328 181 391 181.672 391 182.5Z" fill="#6B7280" fill-opacity="0.6"/>
<path d="M410 182.5C410 183.328 409.328 184 408.5 184C407.672 184 407 183.328 407 182.5C407 181.672 407.672 181 408.5 181C409.328 181 410 181.672 410 182.5Z" fill="#6B7280" fill-opacity="0.6"/>
<path d="M429 182.5C429 183.328 428.328 184 427.5 184C426.672 184 426 183.328 426 182.5C426 181.672 426.672 181 427.5 181C428.328 181 429 181.672 429 182.5Z" fill="#6B7280" fill-opacity="0.6"/>
<path d="M448 182.5C448 183.328 447.328 184 446.5 184C445.672 184 445 183.328 445 182.5C445 181.672 445.672 181 446.5 181C447.328 181 448 181.672 448 182.5Z" fill="#6B7280" fill-opacity="0.6"/>
<path d="M467 182.5C467 183.328 466.328 184 465.5 184C464.672 184 464 183.328 464 182.5C464 181.672 464.672 181 465.5 181C466.328 181 467 181.672 467 182.5Z" fill="#6B7280" fill-opacity="0.6"/>
<path d="M144 201.5C144 202.328 143.328 203 142.5 203C141.672 203 141 202.328 141 201.5C141 200.672 141.672 200 142.5 200C143.328 200 144 200.672 144 201.5Z" fill="#6B7280" fill-opacity="0.6"/>
<path d="M163 201.5C163 202.328 162.328 203 161.5 203C160.672 203 160 202.328 160 201.5C160 200.672 160.672 200 161.5 200C162.328 200 163 200.672 163 201.5Z" fill="#6B7280" fill-opacity="0.6"/>
<path d="M182 201.5C182 202.328 181.328 203 180.5 203C179.672 203 179 202.328 179 201.5C179 200.672 179.672 200 180.5 200C181.328 200 182 200.672 182 201.5Z" fill="#6B7280" fill-opacity="0.6"/>
<path d="M201 201.5C201 202.328 200.328 203 199.5 203C198.672 203 198 202.328 198 201.5C198 200.672 198.672 200 199.5 200C200.328 200 201 200.672 201 201.5Z" fill="#6B7280" fill-opacity="0.6"/>
<path d="M220 201.5C220 202.328 219.328 203 218.5 203C217.672 203 217 202.328 217 201.5C217 200.672 217.672 200 218.5 200C219.328 200 220 200.672 220 201.5Z" fill="#6B7280" fill-opacity="0.6"/>
<path d="M239 201.5C239 202.328 238.328 203 237.5 203C236.672 203 236 202.328 236 201.5C236 200.672 236.672 200 237.5 200C238.328 200 239 200.672 239 201.5Z" fill="#6B7280" fill-opacity="0.6"/>
<path d="M258 201.5C258 202.328 257.328 203 256.5 203C255.672 203 255 202.328 255 201.5C255 200.672 255.672 200 256.5 200C257.328 200 258 200.672 258 201.5Z" fill="#6B7280" fill-opacity="0.6"/>
<path d="M277 201.5C277 202.328 276.328 203 275.5 203C274.672 203 274 202.328 274 201.5C274 200.672 274.672 200 275.5 200C276.328 200 277 200.672 277 201.5Z" fill="#6B7280" fill-opacity="0.6"/>
<path d="M296 201.5C296 202.328 295.328 203 294.5 203C293.672 203 293 202.328 293 201.5C293 200.672 293.672 200 294.5 200C295.328 200 296 200.672 296 201.5Z" fill="#6B7280" fill-opacity="0.6"/>
<path d="M315 201.5C315 202.328 314.328 203 313.5 203C312.672 203 312 202.328 312 201.5C312 200.672 312.672 200 313.5 200C314.328 200 315 200.672 315 201.5Z" fill="#6B7280" fill-opacity="0.6"/>
<path d="M334 201.5C334 202.328 333.328 203 332.5 203C331.672 203 331 202.328 331 201.5C331 200.672 331.672 200 332.5 200C333.328 200 334 200.672 334 201.5Z" fill="#6B7280" fill-opacity="0.6"/>
<path d="M353 201.5C353 202.328 352.328 203 351.5 203C350.672 203 350 202.328 350 201.5C350 200.672 350.672 200 351.5 200C352.328 200 353 200.672 353 201.5Z" fill="#6B7280" fill-opacity="0.6"/>
<path d="M372 201.5C372 202.328 371.328 203 370.5 203C369.672 203 369 202.328 369 201.5C369 200.672 369.672 200 370.5 200C371.328 200 372 200.672 372 201.5Z" fill="#6B7280" fill-opacity="0.6"/>
<path d="M391 201.5C391 202.328 390.328 203 389.5 203C388.672 203 388 202.328 388 201.5C388 200.672 388.672 200 389.5 200C390.328 200 391 200.672 391 201.5Z" fill="#6B7280" fill-opacity="0.6"/>
<path d="M410 201.5C410 202.328 409.328 203 408.5 203C407.672 203 407 202.328 407 201.5C407 200.672 407.672 200 408.5 200C409.328 200 410 200.672 410 201.5Z" fill="#6B7280" fill-opacity="0.6"/>
<path d="M429 201.5C429 202.328 428.328 203 427.5 203C426.672 203 426 202.328 426 201.5C426 200.672 426.672 200 427.5 200C428.328 200 429 200.672 429 201.5Z" fill="#6B7280" fill-opacity="0.6"/>
<path d="M448 201.5C448 202.328 447.328 203 446.5 203C445.672 203 445 202.328 445 201.5C445 200.672 445.672 200 446.5 200C447.328 200 448 200.672 448 201.5Z" fill="#6B7280" fill-opacity="0.6"/>
<path d="M467 201.5C467 202.328 466.328 203 465.5 203C464.672 203 464 202.328 464 201.5C464 200.672 464.672 200 465.5 200C466.328 200 467 200.672 467 201.5Z" fill="#6B7280" fill-opacity="0.6"/>
<path d="M144 220.5C144 221.328 143.328 222 142.5 222C141.672 222 141 221.328 141 220.5C141 219.672 141.672 219 142.5 219C143.328 219 144 219.672 144 220.5Z" fill="#6B7280" fill-opacity="0.6"/>
<path d="M163 220.5C163 221.328 162.328 222 161.5 222C160.672 222 160 221.328 160 220.5C160 219.672 160.672 219 161.5 219C162.328 219 163 219.672 163 220.5Z" fill="#6B7280" fill-opacity="0.6"/>
<path d="M182 220.5C182 221.328 181.328 222 180.5 222C179.672 222 179 221.328 179 220.5C179 219.672 179.672 219 180.5 219C181.328 219 182 219.672 182 220.5Z" fill="#6B7280" fill-opacity="0.6"/>
<path d="M201 220.5C201 221.328 200.328 222 199.5 222C198.672 222 198 221.328 198 220.5C198 219.672 198.672 219 199.5 219C200.328 219 201 219.672 201 220.5Z" fill="#6B7280" fill-opacity="0.6"/>
<path d="M220 220.5C220 221.328 219.328 222 218.5 222C217.672 222 217 221.328 217 220.5C217 219.672 217.672 219 218.5 219C219.328 219 220 219.672 220 220.5Z" fill="#6B7280" fill-opacity="0.6"/>
<path d="M239 220.5C239 221.328 238.328 222 237.5 222C236.672 222 236 221.328 236 220.5C236 219.672 236.672 219 237.5 219C238.328 219 239 219.672 239 220.5Z" fill="#6B7280" fill-opacity="0.6"/>
<path d="M258 220.5C258 221.328 257.328 222 256.5 222C255.672 222 255 221.328 255 220.5C255 219.672 255.672 219 256.5 219C257.328 219 258 219.672 258 220.5Z" fill="#6B7280" fill-opacity="0.6"/>
<path d="M277 220.5C277 221.328 276.328 222 275.5 222C274.672 222 274 221.328 274 220.5C274 219.672 274.672 219 275.5 219C276.328 219 277 219.672 277 220.5Z" fill="#6B7280" fill-opacity="0.6"/>
<path d="M296 220.5C296 221.328 295.328 222 294.5 222C293.672 222 293 221.328 293 220.5C293 219.672 293.672 219 294.5 219C295.328 219 296 219.672 296 220.5Z" fill="#6B7280" fill-opacity="0.6"/>
<path d="M315 220.5C315 221.328 314.328 222 313.5 222C312.672 222 312 221.328 312 220.5C312 219.672 312.672 219 313.5 219C314.328 219 315 219.672 315 220.5Z" fill="#6B7280" fill-opacity="0.6"/>
<path d="M334 220.5C334 221.328 333.328 222 332.5 222C331.672 222 331 221.328 331 220.5C331 219.672 331.672 219 332.5 219C333.328 219 334 219.672 334 220.5Z" fill="#6B7280" fill-opacity="0.6"/>
<path d="M353 220.5C353 221.328 352.328 222 351.5 222C350.672 222 350 221.328 350 220.5C350 219.672 350.672 219 351.5 219C352.328 219 353 219.672 353 220.5Z" fill="#6B7280" fill-opacity="0.6"/>
<path d="M372 220.5C372 221.328 371.328 222 370.5 222C369.672 222 369 221.328 369 220.5C369 219.672 369.672 219 370.5 219C371.328 219 372 219.672 372 220.5Z" fill="#6B7280" fill-opacity="0.6"/>
<path d="M391 220.5C391 221.328 390.328 222 389.5 222C388.672 222 388 221.328 388 220.5C388 219.672 388.672 219 389.5 219C390.328 219 391 219.672 391 220.5Z" fill="#6B7280" fill-opacity="0.6"/>
<path d="M410 220.5C410 221.328 409.328 222 408.5 222C407.672 222 407 221.328 407 220.5C407 219.672 407.672 219 408.5 219C409.328 219 410 219.672 410 220.5Z" fill="#6B7280" fill-opacity="0.6"/>
<path d="M429 220.5C429 221.328 428.328 222 427.5 222C426.672 222 426 221.328 426 220.5C426 219.672 426.672 219 427.5 219C428.328 219 429 219.672 429 220.5Z" fill="#6B7280" fill-opacity="0.6"/>
<path d="M448 220.5C448 221.328 447.328 222 446.5 222C445.672 222 445 221.328 445 220.5C445 219.672 445.672 219 446.5 219C447.328 219 448 219.672 448 220.5Z" fill="#6B7280" fill-opacity="0.6"/>
<path d="M467 220.5C467 221.328 466.328 222 465.5 222C464.672 222 464 221.328 464 220.5C464 219.672 464.672 219 465.5 219C466.328 219 467 219.672 467 220.5Z" fill="#6B7280" fill-opacity="0.6"/>
<path d="M144 239.5C144 240.328 143.328 241 142.5 241C141.672 241 141 240.328 141 239.5C141 238.672 141.672 238 142.5 238C143.328 238 144 238.672 144 239.5Z" fill="#6B7280" fill-opacity="0.6"/>
<path d="M163 239.5C163 240.328 162.328 241 161.5 241C160.672 241 160 240.328 160 239.5C160 238.672 160.672 238 161.5 238C162.328 238 163 238.672 163 239.5Z" fill="#6B7280" fill-opacity="0.6"/>
<path d="M182 239.5C182 240.328 181.328 241 180.5 241C179.672 241 179 240.328 179 239.5C179 238.672 179.672 238 180.5 238C181.328 238 182 238.672 182 239.5Z" fill="#6B7280" fill-opacity="0.6"/>
<path d="M201 239.5C201 240.328 200.328 241 199.5 241C198.672 241 198 240.328 198 239.5C198 238.672 198.672 238 199.5 238C200.328 238 201 238.672 201 239.5Z" fill="#6B7280" fill-opacity="0.6"/>
<path d="M220 239.5C220 240.328 219.328 241 218.5 241C217.672 241 217 240.328 217 239.5C217 238.672 217.672 238 218.5 238C219.328 238 220 238.672 220 239.5Z" fill="#6B7280" fill-opacity="0.6"/>
<path d="M239 239.5C239 240.328 238.328 241 237.5 241C236.672 241 236 240.328 236 239.5C236 238.672 236.672 238 237.5 238C238.328 238 239 238.672 239 239.5Z" fill="#6B7280" fill-opacity="0.6"/>
<path d="M258 239.5C258 240.328 257.328 241 256.5 241C255.672 241 255 240.328 255 239.5C255 238.672 255.672 238 256.5 238C257.328 238 258 238.672 258 239.5Z" fill="#6B7280" fill-opacity="0.6"/>
<path d="M277 239.5C277 240.328 276.328 241 275.5 241C274.672 241 274 240.328 274 239.5C274 238.672 274.672 238 275.5 238C276.328 238 277 238.672 277 239.5Z" fill="#6B7280" fill-opacity="0.6"/>
<path d="M296 239.5C296 240.328 295.328 241 294.5 241C293.672 241 293 240.328 293 239.5C293 238.672 293.672 238 294.5 238C295.328 238 296 238.672 296 239.5Z" fill="#6B7280" fill-opacity="0.6"/>
<path d="M315 239.5C315 240.328 314.328 241 313.5 241C312.672 241 312 240.328 312 239.5C312 238.672 312.672 238 313.5 238C314.328 238 315 238.672 315 239.5Z" fill="#6B7280" fill-opacity="0.6"/>
<path d="M334 239.5C334 240.328 333.328 241 332.5 241C331.672 241 331 240.328 331 239.5C331 238.672 331.672 238 332.5 238C333.328 238 334 238.672 334 239.5Z" fill="#6B7280" fill-opacity="0.6"/>
<path d="M353 239.5C353 240.328 352.328 241 351.5 241C350.672 241 350 240.328 350 239.5C350 238.672 350.672 238 351.5 238C352.328 238 353 238.672 353 239.5Z" fill="#6B7280" fill-opacity="0.6"/>
<path d="M372 239.5C372 240.328 371.328 241 370.5 241C369.672 241 369 240.328 369 239.5C369 238.672 369.672 238 370.5 238C371.328 238 372 238.672 372 239.5Z" fill="#6B7280" fill-opacity="0.6"/>
<path d="M391 239.5C391 240.328 390.328 241 389.5 241C388.672 241 388 240.328 388 239.5C388 238.672 388.672 238 389.5 238C390.328 238 391 238.672 391 239.5Z" fill="#6B7280" fill-opacity="0.6"/>
<path d="M410 239.5C410 240.328 409.328 241 408.5 241C407.672 241 407 240.328 407 239.5C407 238.672 407.672 238 408.5 238C409.328 238 410 238.672 410 239.5Z" fill="#6B7280" fill-opacity="0.6"/>
<path d="M429 239.5C429 240.328 428.328 241 427.5 241C426.672 241 426 240.328 426 239.5C426 238.672 426.672 238 427.5 238C428.328 238 429 238.672 429 239.5Z" fill="#6B7280" fill-opacity="0.6"/>
<path d="M448 239.5C448 240.328 447.328 241 446.5 241C445.672 241 445 240.328 445 239.5C445 238.672 445.672 238 446.5 238C447.328 238 448 238.672 448 239.5Z" fill="#6B7280" fill-opacity="0.6"/>
<path d="M467 239.5C467 240.328 466.328 241 465.5 241C464.672 241 464 240.328 464 239.5C464 238.672 464.672 238 465.5 238C466.328 238 467 238.672 467 239.5Z" fill="#6B7280" fill-opacity="0.6"/>
<path d="M144 258.5C144 259.328 143.328 260 142.5 260C141.672 260 141 259.328 141 258.5C141 257.672 141.672 257 142.5 257C143.328 257 144 257.672 144 258.5Z" fill="#6B7280" fill-opacity="0.6"/>
<path d="M163 258.5C163 259.328 162.328 260 161.5 260C160.672 260 160 259.328 160 258.5C160 257.672 160.672 257 161.5 257C162.328 257 163 257.672 163 258.5Z" fill="#6B7280" fill-opacity="0.6"/>
<path d="M182 258.5C182 259.328 181.328 260 180.5 260C179.672 260 179 259.328 179 258.5C179 257.672 179.672 257 180.5 257C181.328 257 182 257.672 182 258.5Z" fill="#6B7280" fill-opacity="0.6"/>
<path d="M201 258.5C201 259.328 200.328 260 199.5 260C198.672 260 198 259.328 198 258.5C198 257.672 198.672 257 199.5 257C200.328 257 201 257.672 201 258.5Z" fill="#6B7280" fill-opacity="0.6"/>
<path d="M220 258.5C220 259.328 219.328 260 218.5 260C217.672 260 217 259.328 217 258.5C217 257.672 217.672 257 218.5 257C219.328 257 220 257.672 220 258.5Z" fill="#6B7280" fill-opacity="0.6"/>
<path d="M239 258.5C239 259.328 238.328 260 237.5 260C236.672 260 236 259.328 236 258.5C236 257.672 236.672 257 237.5 257C238.328 257 239 257.672 239 258.5Z" fill="#6B7280" fill-opacity="0.6"/>
<path d="M258 258.5C258 259.328 257.328 260 256.5 260C255.672 260 255 259.328 255 258.5C255 257.672 255.672 257 256.5 257C257.328 257 258 257.672 258 258.5Z" fill="#6B7280" fill-opacity="0.6"/>
<path d="M277 258.5C277 259.328 276.328 260 275.5 260C274.672 260 274 259.328 274 258.5C274 257.672 274.672 257 275.5 257C276.328 257 277 257.672 277 258.5Z" fill="#6B7280" fill-opacity="0.6"/>
<path d="M296 258.5C296 259.328 295.328 260 294.5 260C293.672 260 293 259.328 293 258.5C293 257.672 293.672 257 294.5 257C295.328 257 296 257.672 296 258.5Z" fill="#6B7280" fill-opacity="0.6"/>
<path d="M315 258.5C315 259.328 314.328 260 313.5 260C312.672 260 312 259.328 312 258.5C312 257.672 312.672 257 313.5 257C314.328 257 315 257.672 315 258.5Z" fill="#6B7280" fill-opacity="0.6"/>
<path d="M334 258.5C334 259.328 333.328 260 332.5 260C331.672 260 331 259.328 331 258.5C331 257.672 331.672 257 332.5 257C333.328 257 334 257.672 334 258.5Z" fill="#6B7280" fill-opacity="0.6"/>
<path d="M353 258.5C353 259.328 352.328 260 351.5 260C350.672 260 350 259.328 350 258.5C350 257.672 350.672 257 351.5 257C352.328 257 353 257.672 353 258.5Z" fill="#6B7280" fill-opacity="0.6"/>
<path d="M372 258.5C372 259.328 371.328 260 370.5 260C369.672 260 369 259.328 369 258.5C369 257.672 369.672 257 370.5 257C371.328 257 372 257.672 372 258.5Z" fill="#6B7280" fill-opacity="0.6"/>
<path d="M391 258.5C391 259.328 390.328 260 389.5 260C388.672 260 388 259.328 388 258.5C388 257.672 388.672 257 389.5 257C390.328 257 391 257.672 391 258.5Z" fill="#6B7280" fill-opacity="0.6"/>
<path d="M410 258.5C410 259.328 409.328 260 408.5 260C407.672 260 407 259.328 407 258.5C407 257.672 407.672 257 408.5 257C409.328 257 410 257.672 410 258.5Z" fill="#6B7280" fill-opacity="0.6"/>
<path d="M429 258.5C429 259.328 428.328 260 427.5 260C426.672 260 426 259.328 426 258.5C426 257.672 426.672 257 427.5 257C428.328 257 429 257.672 429 258.5Z" fill="#6B7280" fill-opacity="0.6"/>
<path d="M448 258.5C448 259.328 447.328 260 446.5 260C445.672 260 445 259.328 445 258.5C445 257.672 445.672 257 446.5 257C447.328 257 448 257.672 448 258.5Z" fill="#6B7280" fill-opacity="0.6"/>
<path d="M467 258.5C467 259.328 466.328 260 465.5 260C464.672 260 464 259.328 464 258.5C464 257.672 464.672 257 465.5 257C466.328 257 467 257.672 467 258.5Z" fill="#6B7280" fill-opacity="0.6"/>
</g>
<rect x="291.195" y="120.038" width="26.8293" height="9.96226" fill="#6B7280"/>
<path fill-rule="evenodd" clip-rule="evenodd" d="M318.839 110.075C325.003 105.426 329 97.9539 329 89.5283C329 75.4294 317.807 64 304 64C290.193 64 279 75.4294 279 89.5283C279 97.9539 282.997 105.426 289.161 110.075H318.839Z" fill="#6B7280"/>
</g>
<defs>
<radialGradient id="paint0_radial_112_712" cx="0" cy="0" r="1" gradientUnits="userSpaceOnUse" gradientTransform="translate(168 168) rotate(90) scale(168 168)">
<stop/>
<stop offset="1" stop-opacity="0"/>
</radialGradient>
<clipPath id="clip0_112_712">
<rect width="608" height="194" fill="white"/>
</clipPath>
</defs>
</svg>
