<svg width="234" height="164" viewBox="0 0 234 164" fill="none" xmlns="http://www.w3.org/2000/svg">
<g clip-path="url(#clip0_112_712)">
<mask id="mask0_112_712" style="mask-type:alpha" maskUnits="userSpaceOnUse" x="-51" y="-86" width="336" height="336">
<rect width="336" height="336" transform="translate(-51 -86)" fill="url(#paint0_radial_112_712)"/>
</mask>
<g mask="url(#mask0_112_712)">
<path d="M-43 -79.5C-43 -78.6716 -43.6716 -78 -44.5 -78C-45.3284 -78 -46 -78.6716 -46 -79.5C-46 -80.3284 -45.3284 -81 -44.5 -81C-43.6716 -81 -43 -80.3284 -43 -79.5Z" fill="#6B7280" fill-opacity="0.6"/>
<path d="M-24 -79.5C-24 -78.6716 -24.6716 -78 -25.5 -78C-26.3284 -78 -27 -78.6716 -27 -79.5C-27 -80.3284 -26.3284 -81 -25.5 -81C-24.6716 -81 -24 -80.3284 -24 -79.5Z" fill="#6B7280" fill-opacity="0.6"/>
<path d="M-5 -79.5C-5 -78.6716 -5.67157 -78 -6.5 -78C-7.32843 -78 -8 -78.6716 -8 -79.5C-8 -80.3284 -7.32843 -81 -6.5 -81C-5.67157 -81 -5 -80.3284 -5 -79.5Z" fill="#6B7280" fill-opacity="0.6"/>
<path d="M14 -79.5C14 -78.6716 13.3284 -78 12.5 -78C11.6716 -78 11 -78.6716 11 -79.5C11 -80.3284 11.6716 -81 12.5 -81C13.3284 -81 14 -80.3284 14 -79.5Z" fill="#6B7280" fill-opacity="0.6"/>
<path d="M33 -79.5C33 -78.6716 32.3284 -78 31.5 -78C30.6716 -78 30 -78.6716 30 -79.5C30 -80.3284 30.6716 -81 31.5 -81C32.3284 -81 33 -80.3284 33 -79.5Z" fill="#6B7280" fill-opacity="0.6"/>
<path d="M52 -79.5C52 -78.6716 51.3284 -78 50.5 -78C49.6716 -78 49 -78.6716 49 -79.5C49 -80.3284 49.6716 -81 50.5 -81C51.3284 -81 52 -80.3284 52 -79.5Z" fill="#6B7280" fill-opacity="0.6"/>
<path d="M71 -79.5C71 -78.6716 70.3284 -78 69.5 -78C68.6716 -78 68 -78.6716 68 -79.5C68 -80.3284 68.6716 -81 69.5 -81C70.3284 -81 71 -80.3284 71 -79.5Z" fill="#6B7280" fill-opacity="0.6"/>
<path d="M90 -79.5C90 -78.6716 89.3284 -78 88.5 -78C87.6716 -78 87 -78.6716 87 -79.5C87 -80.3284 87.6716 -81 88.5 -81C89.3284 -81 90 -80.3284 90 -79.5Z" fill="#6B7280" fill-opacity="0.6"/>
<path d="M109 -79.5C109 -78.6716 108.328 -78 107.5 -78C106.672 -78 106 -78.6716 106 -79.5C106 -80.3284 106.672 -81 107.5 -81C108.328 -81 109 -80.3284 109 -79.5Z" fill="#6B7280" fill-opacity="0.6"/>
<path d="M128 -79.5C128 -78.6716 127.328 -78 126.5 -78C125.672 -78 125 -78.6716 125 -79.5C125 -80.3284 125.672 -81 126.5 -81C127.328 -81 128 -80.3284 128 -79.5Z" fill="#6B7280" fill-opacity="0.6"/>
<path d="M147 -79.5C147 -78.6716 146.328 -78 145.5 -78C144.672 -78 144 -78.6716 144 -79.5C144 -80.3284 144.672 -81 145.5 -81C146.328 -81 147 -80.3284 147 -79.5Z" fill="#6B7280" fill-opacity="0.6"/>
<path d="M166 -79.5C166 -78.6716 165.328 -78 164.5 -78C163.672 -78 163 -78.6716 163 -79.5C163 -80.3284 163.672 -81 164.5 -81C165.328 -81 166 -80.3284 166 -79.5Z" fill="#6B7280" fill-opacity="0.6"/>
<path d="M185 -79.5C185 -78.6716 184.328 -78 183.5 -78C182.672 -78 182 -78.6716 182 -79.5C182 -80.3284 182.672 -81 183.5 -81C184.328 -81 185 -80.3284 185 -79.5Z" fill="#6B7280" fill-opacity="0.6"/>
<path d="M204 -79.5C204 -78.6716 203.328 -78 202.5 -78C201.672 -78 201 -78.6716 201 -79.5C201 -80.3284 201.672 -81 202.5 -81C203.328 -81 204 -80.3284 204 -79.5Z" fill="#6B7280" fill-opacity="0.6"/>
<path d="M223 -79.5C223 -78.6716 222.328 -78 221.5 -78C220.672 -78 220 -78.6716 220 -79.5C220 -80.3284 220.672 -81 221.5 -81C222.328 -81 223 -80.3284 223 -79.5Z" fill="#6B7280" fill-opacity="0.6"/>
<path d="M242 -79.5C242 -78.6716 241.328 -78 240.5 -78C239.672 -78 239 -78.6716 239 -79.5C239 -80.3284 239.672 -81 240.5 -81C241.328 -81 242 -80.3284 242 -79.5Z" fill="#6B7280" fill-opacity="0.6"/>
<path d="M261 -79.5C261 -78.6716 260.328 -78 259.5 -78C258.672 -78 258 -78.6716 258 -79.5C258 -80.3284 258.672 -81 259.5 -81C260.328 -81 261 -80.3284 261 -79.5Z" fill="#6B7280" fill-opacity="0.6"/>
<path d="M280 -79.5C280 -78.6716 279.328 -78 278.5 -78C277.672 -78 277 -78.6716 277 -79.5C277 -80.3284 277.672 -81 278.5 -81C279.328 -81 280 -80.3284 280 -79.5Z" fill="#6B7280" fill-opacity="0.6"/>
<path d="M-43 -60.5C-43 -59.6716 -43.6716 -59 -44.5 -59C-45.3284 -59 -46 -59.6716 -46 -60.5C-46 -61.3284 -45.3284 -62 -44.5 -62C-43.6716 -62 -43 -61.3284 -43 -60.5Z" fill="#6B7280" fill-opacity="0.6"/>
<path d="M-24 -60.5C-24 -59.6716 -24.6716 -59 -25.5 -59C-26.3284 -59 -27 -59.6716 -27 -60.5C-27 -61.3284 -26.3284 -62 -25.5 -62C-24.6716 -62 -24 -61.3284 -24 -60.5Z" fill="#6B7280" fill-opacity="0.6"/>
<path d="M-5 -60.5C-5 -59.6716 -5.67157 -59 -6.5 -59C-7.32843 -59 -8 -59.6716 -8 -60.5C-8 -61.3284 -7.32843 -62 -6.5 -62C-5.67157 -62 -5 -61.3284 -5 -60.5Z" fill="#6B7280" fill-opacity="0.6"/>
<path d="M14 -60.5C14 -59.6716 13.3284 -59 12.5 -59C11.6716 -59 11 -59.6716 11 -60.5C11 -61.3284 11.6716 -62 12.5 -62C13.3284 -62 14 -61.3284 14 -60.5Z" fill="#6B7280" fill-opacity="0.6"/>
<path d="M33 -60.5C33 -59.6716 32.3284 -59 31.5 -59C30.6716 -59 30 -59.6716 30 -60.5C30 -61.3284 30.6716 -62 31.5 -62C32.3284 -62 33 -61.3284 33 -60.5Z" fill="#6B7280" fill-opacity="0.6"/>
<path d="M52 -60.5C52 -59.6716 51.3284 -59 50.5 -59C49.6716 -59 49 -59.6716 49 -60.5C49 -61.3284 49.6716 -62 50.5 -62C51.3284 -62 52 -61.3284 52 -60.5Z" fill="#6B7280" fill-opacity="0.6"/>
<path d="M71 -60.5C71 -59.6716 70.3284 -59 69.5 -59C68.6716 -59 68 -59.6716 68 -60.5C68 -61.3284 68.6716 -62 69.5 -62C70.3284 -62 71 -61.3284 71 -60.5Z" fill="#6B7280" fill-opacity="0.6"/>
<path d="M90 -60.5C90 -59.6716 89.3284 -59 88.5 -59C87.6716 -59 87 -59.6716 87 -60.5C87 -61.3284 87.6716 -62 88.5 -62C89.3284 -62 90 -61.3284 90 -60.5Z" fill="#6B7280" fill-opacity="0.6"/>
<path d="M109 -60.5C109 -59.6716 108.328 -59 107.5 -59C106.672 -59 106 -59.6716 106 -60.5C106 -61.3284 106.672 -62 107.5 -62C108.328 -62 109 -61.3284 109 -60.5Z" fill="#6B7280" fill-opacity="0.6"/>
<path d="M128 -60.5C128 -59.6716 127.328 -59 126.5 -59C125.672 -59 125 -59.6716 125 -60.5C125 -61.3284 125.672 -62 126.5 -62C127.328 -62 128 -61.3284 128 -60.5Z" fill="#6B7280" fill-opacity="0.6"/>
<path d="M147 -60.5C147 -59.6716 146.328 -59 145.5 -59C144.672 -59 144 -59.6716 144 -60.5C144 -61.3284 144.672 -62 145.5 -62C146.328 -62 147 -61.3284 147 -60.5Z" fill="#6B7280" fill-opacity="0.6"/>
<path d="M166 -60.5C166 -59.6716 165.328 -59 164.5 -59C163.672 -59 163 -59.6716 163 -60.5C163 -61.3284 163.672 -62 164.5 -62C165.328 -62 166 -61.3284 166 -60.5Z" fill="#6B7280" fill-opacity="0.6"/>
<path d="M185 -60.5C185 -59.6716 184.328 -59 183.5 -59C182.672 -59 182 -59.6716 182 -60.5C182 -61.3284 182.672 -62 183.5 -62C184.328 -62 185 -61.3284 185 -60.5Z" fill="#6B7280" fill-opacity="0.6"/>
<path d="M204 -60.5C204 -59.6716 203.328 -59 202.5 -59C201.672 -59 201 -59.6716 201 -60.5C201 -61.3284 201.672 -62 202.5 -62C203.328 -62 204 -61.3284 204 -60.5Z" fill="#6B7280" fill-opacity="0.6"/>
<path d="M223 -60.5C223 -59.6716 222.328 -59 221.5 -59C220.672 -59 220 -59.6716 220 -60.5C220 -61.3284 220.672 -62 221.5 -62C222.328 -62 223 -61.3284 223 -60.5Z" fill="#6B7280" fill-opacity="0.6"/>
<path d="M242 -60.5C242 -59.6716 241.328 -59 240.5 -59C239.672 -59 239 -59.6716 239 -60.5C239 -61.3284 239.672 -62 240.5 -62C241.328 -62 242 -61.3284 242 -60.5Z" fill="#6B7280" fill-opacity="0.6"/>
<path d="M261 -60.5C261 -59.6716 260.328 -59 259.5 -59C258.672 -59 258 -59.6716 258 -60.5C258 -61.3284 258.672 -62 259.5 -62C260.328 -62 261 -61.3284 261 -60.5Z" fill="#6B7280" fill-opacity="0.6"/>
<path d="M280 -60.5C280 -59.6716 279.328 -59 278.5 -59C277.672 -59 277 -59.6716 277 -60.5C277 -61.3284 277.672 -62 278.5 -62C279.328 -62 280 -61.3284 280 -60.5Z" fill="#6B7280" fill-opacity="0.6"/>
<path d="M-43 -41.5C-43 -40.6716 -43.6716 -40 -44.5 -40C-45.3284 -40 -46 -40.6716 -46 -41.5C-46 -42.3284 -45.3284 -43 -44.5 -43C-43.6716 -43 -43 -42.3284 -43 -41.5Z" fill="#6B7280" fill-opacity="0.6"/>
<path d="M-24 -41.5C-24 -40.6716 -24.6716 -40 -25.5 -40C-26.3284 -40 -27 -40.6716 -27 -41.5C-27 -42.3284 -26.3284 -43 -25.5 -43C-24.6716 -43 -24 -42.3284 -24 -41.5Z" fill="#6B7280" fill-opacity="0.6"/>
<path d="M-5 -41.5C-5 -40.6716 -5.67157 -40 -6.5 -40C-7.32843 -40 -8 -40.6716 -8 -41.5C-8 -42.3284 -7.32843 -43 -6.5 -43C-5.67157 -43 -5 -42.3284 -5 -41.5Z" fill="#6B7280" fill-opacity="0.6"/>
<path d="M14 -41.5C14 -40.6716 13.3284 -40 12.5 -40C11.6716 -40 11 -40.6716 11 -41.5C11 -42.3284 11.6716 -43 12.5 -43C13.3284 -43 14 -42.3284 14 -41.5Z" fill="#6B7280" fill-opacity="0.6"/>
<path d="M33 -41.5C33 -40.6716 32.3284 -40 31.5 -40C30.6716 -40 30 -40.6716 30 -41.5C30 -42.3284 30.6716 -43 31.5 -43C32.3284 -43 33 -42.3284 33 -41.5Z" fill="#6B7280" fill-opacity="0.6"/>
<path d="M52 -41.5C52 -40.6716 51.3284 -40 50.5 -40C49.6716 -40 49 -40.6716 49 -41.5C49 -42.3284 49.6716 -43 50.5 -43C51.3284 -43 52 -42.3284 52 -41.5Z" fill="#6B7280" fill-opacity="0.6"/>
<path d="M71 -41.5C71 -40.6716 70.3284 -40 69.5 -40C68.6716 -40 68 -40.6716 68 -41.5C68 -42.3284 68.6716 -43 69.5 -43C70.3284 -43 71 -42.3284 71 -41.5Z" fill="#6B7280" fill-opacity="0.6"/>
<path d="M90 -41.5C90 -40.6716 89.3284 -40 88.5 -40C87.6716 -40 87 -40.6716 87 -41.5C87 -42.3284 87.6716 -43 88.5 -43C89.3284 -43 90 -42.3284 90 -41.5Z" fill="#6B7280" fill-opacity="0.6"/>
<path d="M109 -41.5C109 -40.6716 108.328 -40 107.5 -40C106.672 -40 106 -40.6716 106 -41.5C106 -42.3284 106.672 -43 107.5 -43C108.328 -43 109 -42.3284 109 -41.5Z" fill="#6B7280" fill-opacity="0.6"/>
<path d="M128 -41.5C128 -40.6716 127.328 -40 126.5 -40C125.672 -40 125 -40.6716 125 -41.5C125 -42.3284 125.672 -43 126.5 -43C127.328 -43 128 -42.3284 128 -41.5Z" fill="#6B7280" fill-opacity="0.6"/>
<path d="M147 -41.5C147 -40.6716 146.328 -40 145.5 -40C144.672 -40 144 -40.6716 144 -41.5C144 -42.3284 144.672 -43 145.5 -43C146.328 -43 147 -42.3284 147 -41.5Z" fill="#6B7280" fill-opacity="0.6"/>
<path d="M166 -41.5C166 -40.6716 165.328 -40 164.5 -40C163.672 -40 163 -40.6716 163 -41.5C163 -42.3284 163.672 -43 164.5 -43C165.328 -43 166 -42.3284 166 -41.5Z" fill="#6B7280" fill-opacity="0.6"/>
<path d="M185 -41.5C185 -40.6716 184.328 -40 183.5 -40C182.672 -40 182 -40.6716 182 -41.5C182 -42.3284 182.672 -43 183.5 -43C184.328 -43 185 -42.3284 185 -41.5Z" fill="#6B7280" fill-opacity="0.6"/>
<path d="M204 -41.5C204 -40.6716 203.328 -40 202.5 -40C201.672 -40 201 -40.6716 201 -41.5C201 -42.3284 201.672 -43 202.5 -43C203.328 -43 204 -42.3284 204 -41.5Z" fill="#6B7280" fill-opacity="0.6"/>
<path d="M223 -41.5C223 -40.6716 222.328 -40 221.5 -40C220.672 -40 220 -40.6716 220 -41.5C220 -42.3284 220.672 -43 221.5 -43C222.328 -43 223 -42.3284 223 -41.5Z" fill="#6B7280" fill-opacity="0.6"/>
<path d="M242 -41.5C242 -40.6716 241.328 -40 240.5 -40C239.672 -40 239 -40.6716 239 -41.5C239 -42.3284 239.672 -43 240.5 -43C241.328 -43 242 -42.3284 242 -41.5Z" fill="#6B7280" fill-opacity="0.6"/>
<path d="M261 -41.5C261 -40.6716 260.328 -40 259.5 -40C258.672 -40 258 -40.6716 258 -41.5C258 -42.3284 258.672 -43 259.5 -43C260.328 -43 261 -42.3284 261 -41.5Z" fill="#6B7280" fill-opacity="0.6"/>
<path d="M280 -41.5C280 -40.6716 279.328 -40 278.5 -40C277.672 -40 277 -40.6716 277 -41.5C277 -42.3284 277.672 -43 278.5 -43C279.328 -43 280 -42.3284 280 -41.5Z" fill="#6B7280" fill-opacity="0.6"/>
<path d="M-43 -22.5C-43 -21.6716 -43.6716 -21 -44.5 -21C-45.3284 -21 -46 -21.6716 -46 -22.5C-46 -23.3284 -45.3284 -24 -44.5 -24C-43.6716 -24 -43 -23.3284 -43 -22.5Z" fill="#6B7280" fill-opacity="0.6"/>
<path d="M-24 -22.5C-24 -21.6716 -24.6716 -21 -25.5 -21C-26.3284 -21 -27 -21.6716 -27 -22.5C-27 -23.3284 -26.3284 -24 -25.5 -24C-24.6716 -24 -24 -23.3284 -24 -22.5Z" fill="#6B7280" fill-opacity="0.6"/>
<path d="M-5 -22.5C-5 -21.6716 -5.67157 -21 -6.5 -21C-7.32843 -21 -8 -21.6716 -8 -22.5C-8 -23.3284 -7.32843 -24 -6.5 -24C-5.67157 -24 -5 -23.3284 -5 -22.5Z" fill="#6B7280" fill-opacity="0.6"/>
<path d="M14 -22.5C14 -21.6716 13.3284 -21 12.5 -21C11.6716 -21 11 -21.6716 11 -22.5C11 -23.3284 11.6716 -24 12.5 -24C13.3284 -24 14 -23.3284 14 -22.5Z" fill="#6B7280" fill-opacity="0.6"/>
<path d="M33 -22.5C33 -21.6716 32.3284 -21 31.5 -21C30.6716 -21 30 -21.6716 30 -22.5C30 -23.3284 30.6716 -24 31.5 -24C32.3284 -24 33 -23.3284 33 -22.5Z" fill="#6B7280" fill-opacity="0.6"/>
<path d="M52 -22.5C52 -21.6716 51.3284 -21 50.5 -21C49.6716 -21 49 -21.6716 49 -22.5C49 -23.3284 49.6716 -24 50.5 -24C51.3284 -24 52 -23.3284 52 -22.5Z" fill="#6B7280" fill-opacity="0.6"/>
<path d="M71 -22.5C71 -21.6716 70.3284 -21 69.5 -21C68.6716 -21 68 -21.6716 68 -22.5C68 -23.3284 68.6716 -24 69.5 -24C70.3284 -24 71 -23.3284 71 -22.5Z" fill="#6B7280" fill-opacity="0.6"/>
<path d="M90 -22.5C90 -21.6716 89.3284 -21 88.5 -21C87.6716 -21 87 -21.6716 87 -22.5C87 -23.3284 87.6716 -24 88.5 -24C89.3284 -24 90 -23.3284 90 -22.5Z" fill="#6B7280" fill-opacity="0.6"/>
<path d="M109 -22.5C109 -21.6716 108.328 -21 107.5 -21C106.672 -21 106 -21.6716 106 -22.5C106 -23.3284 106.672 -24 107.5 -24C108.328 -24 109 -23.3284 109 -22.5Z" fill="#6B7280" fill-opacity="0.6"/>
<path d="M128 -22.5C128 -21.6716 127.328 -21 126.5 -21C125.672 -21 125 -21.6716 125 -22.5C125 -23.3284 125.672 -24 126.5 -24C127.328 -24 128 -23.3284 128 -22.5Z" fill="#6B7280" fill-opacity="0.6"/>
<path d="M147 -22.5C147 -21.6716 146.328 -21 145.5 -21C144.672 -21 144 -21.6716 144 -22.5C144 -23.3284 144.672 -24 145.5 -24C146.328 -24 147 -23.3284 147 -22.5Z" fill="#6B7280" fill-opacity="0.6"/>
<path d="M166 -22.5C166 -21.6716 165.328 -21 164.5 -21C163.672 -21 163 -21.6716 163 -22.5C163 -23.3284 163.672 -24 164.5 -24C165.328 -24 166 -23.3284 166 -22.5Z" fill="#6B7280" fill-opacity="0.6"/>
<path d="M185 -22.5C185 -21.6716 184.328 -21 183.5 -21C182.672 -21 182 -21.6716 182 -22.5C182 -23.3284 182.672 -24 183.5 -24C184.328 -24 185 -23.3284 185 -22.5Z" fill="#6B7280" fill-opacity="0.6"/>
<path d="M204 -22.5C204 -21.6716 203.328 -21 202.5 -21C201.672 -21 201 -21.6716 201 -22.5C201 -23.3284 201.672 -24 202.5 -24C203.328 -24 204 -23.3284 204 -22.5Z" fill="#6B7280" fill-opacity="0.6"/>
<path d="M223 -22.5C223 -21.6716 222.328 -21 221.5 -21C220.672 -21 220 -21.6716 220 -22.5C220 -23.3284 220.672 -24 221.5 -24C222.328 -24 223 -23.3284 223 -22.5Z" fill="#6B7280" fill-opacity="0.6"/>
<path d="M242 -22.5C242 -21.6716 241.328 -21 240.5 -21C239.672 -21 239 -21.6716 239 -22.5C239 -23.3284 239.672 -24 240.5 -24C241.328 -24 242 -23.3284 242 -22.5Z" fill="#6B7280" fill-opacity="0.6"/>
<path d="M261 -22.5C261 -21.6716 260.328 -21 259.5 -21C258.672 -21 258 -21.6716 258 -22.5C258 -23.3284 258.672 -24 259.5 -24C260.328 -24 261 -23.3284 261 -22.5Z" fill="#6B7280" fill-opacity="0.6"/>
<path d="M280 -22.5C280 -21.6716 279.328 -21 278.5 -21C277.672 -21 277 -21.6716 277 -22.5C277 -23.3284 277.672 -24 278.5 -24C279.328 -24 280 -23.3284 280 -22.5Z" fill="#6B7280" fill-opacity="0.6"/>
<path d="M-43 -3.5C-43 -2.67157 -43.6716 -2 -44.5 -2C-45.3284 -2 -46 -2.67157 -46 -3.5C-46 -4.32843 -45.3284 -5 -44.5 -5C-43.6716 -5 -43 -4.32843 -43 -3.5Z" fill="#6B7280" fill-opacity="0.6"/>
<path d="M-24 -3.5C-24 -2.67157 -24.6716 -2 -25.5 -2C-26.3284 -2 -27 -2.67157 -27 -3.5C-27 -4.32843 -26.3284 -5 -25.5 -5C-24.6716 -5 -24 -4.32843 -24 -3.5Z" fill="#6B7280" fill-opacity="0.6"/>
<path d="M-5 -3.5C-5 -2.67157 -5.67157 -2 -6.5 -2C-7.32843 -2 -8 -2.67157 -8 -3.5C-8 -4.32843 -7.32843 -5 -6.5 -5C-5.67157 -5 -5 -4.32843 -5 -3.5Z" fill="#6B7280" fill-opacity="0.6"/>
<path d="M14 -3.5C14 -2.67157 13.3284 -2 12.5 -2C11.6716 -2 11 -2.67157 11 -3.5C11 -4.32843 11.6716 -5 12.5 -5C13.3284 -5 14 -4.32843 14 -3.5Z" fill="#6B7280" fill-opacity="0.6"/>
<path d="M33 -3.5C33 -2.67157 32.3284 -2 31.5 -2C30.6716 -2 30 -2.67157 30 -3.5C30 -4.32843 30.6716 -5 31.5 -5C32.3284 -5 33 -4.32843 33 -3.5Z" fill="#6B7280" fill-opacity="0.6"/>
<path d="M52 -3.5C52 -2.67157 51.3284 -2 50.5 -2C49.6716 -2 49 -2.67157 49 -3.5C49 -4.32843 49.6716 -5 50.5 -5C51.3284 -5 52 -4.32843 52 -3.5Z" fill="#6B7280" fill-opacity="0.6"/>
<path d="M71 -3.5C71 -2.67157 70.3284 -2 69.5 -2C68.6716 -2 68 -2.67157 68 -3.5C68 -4.32843 68.6716 -5 69.5 -5C70.3284 -5 71 -4.32843 71 -3.5Z" fill="#6B7280" fill-opacity="0.6"/>
<path d="M90 -3.5C90 -2.67157 89.3284 -2 88.5 -2C87.6716 -2 87 -2.67157 87 -3.5C87 -4.32843 87.6716 -5 88.5 -5C89.3284 -5 90 -4.32843 90 -3.5Z" fill="#6B7280" fill-opacity="0.6"/>
<path d="M109 -3.5C109 -2.67157 108.328 -2 107.5 -2C106.672 -2 106 -2.67157 106 -3.5C106 -4.32843 106.672 -5 107.5 -5C108.328 -5 109 -4.32843 109 -3.5Z" fill="#6B7280" fill-opacity="0.6"/>
<path d="M128 -3.5C128 -2.67157 127.328 -2 126.5 -2C125.672 -2 125 -2.67157 125 -3.5C125 -4.32843 125.672 -5 126.5 -5C127.328 -5 128 -4.32843 128 -3.5Z" fill="#6B7280" fill-opacity="0.6"/>
<path d="M147 -3.5C147 -2.67157 146.328 -2 145.5 -2C144.672 -2 144 -2.67157 144 -3.5C144 -4.32843 144.672 -5 145.5 -5C146.328 -5 147 -4.32843 147 -3.5Z" fill="#6B7280" fill-opacity="0.6"/>
<path d="M166 -3.5C166 -2.67157 165.328 -2 164.5 -2C163.672 -2 163 -2.67157 163 -3.5C163 -4.32843 163.672 -5 164.5 -5C165.328 -5 166 -4.32843 166 -3.5Z" fill="#6B7280" fill-opacity="0.6"/>
<path d="M185 -3.5C185 -2.67157 184.328 -2 183.5 -2C182.672 -2 182 -2.67157 182 -3.5C182 -4.32843 182.672 -5 183.5 -5C184.328 -5 185 -4.32843 185 -3.5Z" fill="#6B7280" fill-opacity="0.6"/>
<path d="M204 -3.5C204 -2.67157 203.328 -2 202.5 -2C201.672 -2 201 -2.67157 201 -3.5C201 -4.32843 201.672 -5 202.5 -5C203.328 -5 204 -4.32843 204 -3.5Z" fill="#6B7280" fill-opacity="0.6"/>
<path d="M223 -3.5C223 -2.67157 222.328 -2 221.5 -2C220.672 -2 220 -2.67157 220 -3.5C220 -4.32843 220.672 -5 221.5 -5C222.328 -5 223 -4.32843 223 -3.5Z" fill="#6B7280" fill-opacity="0.6"/>
<path d="M242 -3.5C242 -2.67157 241.328 -2 240.5 -2C239.672 -2 239 -2.67157 239 -3.5C239 -4.32843 239.672 -5 240.5 -5C241.328 -5 242 -4.32843 242 -3.5Z" fill="#6B7280" fill-opacity="0.6"/>
<path d="M261 -3.5C261 -2.67157 260.328 -2 259.5 -2C258.672 -2 258 -2.67157 258 -3.5C258 -4.32843 258.672 -5 259.5 -5C260.328 -5 261 -4.32843 261 -3.5Z" fill="#6B7280" fill-opacity="0.6"/>
<path d="M280 -3.5C280 -2.67157 279.328 -2 278.5 -2C277.672 -2 277 -2.67157 277 -3.5C277 -4.32843 277.672 -5 278.5 -5C279.328 -5 280 -4.32843 280 -3.5Z" fill="#6B7280" fill-opacity="0.6"/>
<path d="M-43 15.5C-43 16.3284 -43.6716 17 -44.5 17C-45.3284 17 -46 16.3284 -46 15.5C-46 14.6716 -45.3284 14 -44.5 14C-43.6716 14 -43 14.6716 -43 15.5Z" fill="#6B7280" fill-opacity="0.6"/>
<path d="M-24 15.5C-24 16.3284 -24.6716 17 -25.5 17C-26.3284 17 -27 16.3284 -27 15.5C-27 14.6716 -26.3284 14 -25.5 14C-24.6716 14 -24 14.6716 -24 15.5Z" fill="#6B7280" fill-opacity="0.6"/>
<path d="M-5 15.5C-5 16.3284 -5.67157 17 -6.5 17C-7.32843 17 -8 16.3284 -8 15.5C-8 14.6716 -7.32843 14 -6.5 14C-5.67157 14 -5 14.6716 -5 15.5Z" fill="#6B7280" fill-opacity="0.6"/>
<path d="M14 15.5C14 16.3284 13.3284 17 12.5 17C11.6716 17 11 16.3284 11 15.5C11 14.6716 11.6716 14 12.5 14C13.3284 14 14 14.6716 14 15.5Z" fill="#6B7280" fill-opacity="0.6"/>
<path d="M33 15.5C33 16.3284 32.3284 17 31.5 17C30.6716 17 30 16.3284 30 15.5C30 14.6716 30.6716 14 31.5 14C32.3284 14 33 14.6716 33 15.5Z" fill="#6B7280" fill-opacity="0.6"/>
<path d="M52 15.5C52 16.3284 51.3284 17 50.5 17C49.6716 17 49 16.3284 49 15.5C49 14.6716 49.6716 14 50.5 14C51.3284 14 52 14.6716 52 15.5Z" fill="#6B7280" fill-opacity="0.6"/>
<path d="M71 15.5C71 16.3284 70.3284 17 69.5 17C68.6716 17 68 16.3284 68 15.5C68 14.6716 68.6716 14 69.5 14C70.3284 14 71 14.6716 71 15.5Z" fill="#6B7280" fill-opacity="0.6"/>
<path d="M90 15.5C90 16.3284 89.3284 17 88.5 17C87.6716 17 87 16.3284 87 15.5C87 14.6716 87.6716 14 88.5 14C89.3284 14 90 14.6716 90 15.5Z" fill="#6B7280" fill-opacity="0.6"/>
<path d="M109 15.5C109 16.3284 108.328 17 107.5 17C106.672 17 106 16.3284 106 15.5C106 14.6716 106.672 14 107.5 14C108.328 14 109 14.6716 109 15.5Z" fill="#6B7280" fill-opacity="0.6"/>
<path d="M128 15.5C128 16.3284 127.328 17 126.5 17C125.672 17 125 16.3284 125 15.5C125 14.6716 125.672 14 126.5 14C127.328 14 128 14.6716 128 15.5Z" fill="#6B7280" fill-opacity="0.6"/>
<path d="M147 15.5C147 16.3284 146.328 17 145.5 17C144.672 17 144 16.3284 144 15.5C144 14.6716 144.672 14 145.5 14C146.328 14 147 14.6716 147 15.5Z" fill="#6B7280" fill-opacity="0.6"/>
<path d="M166 15.5C166 16.3284 165.328 17 164.5 17C163.672 17 163 16.3284 163 15.5C163 14.6716 163.672 14 164.5 14C165.328 14 166 14.6716 166 15.5Z" fill="#6B7280" fill-opacity="0.6"/>
<path d="M185 15.5C185 16.3284 184.328 17 183.5 17C182.672 17 182 16.3284 182 15.5C182 14.6716 182.672 14 183.5 14C184.328 14 185 14.6716 185 15.5Z" fill="#6B7280" fill-opacity="0.6"/>
<path d="M204 15.5C204 16.3284 203.328 17 202.5 17C201.672 17 201 16.3284 201 15.5C201 14.6716 201.672 14 202.5 14C203.328 14 204 14.6716 204 15.5Z" fill="#6B7280" fill-opacity="0.6"/>
<path d="M223 15.5C223 16.3284 222.328 17 221.5 17C220.672 17 220 16.3284 220 15.5C220 14.6716 220.672 14 221.5 14C222.328 14 223 14.6716 223 15.5Z" fill="#6B7280" fill-opacity="0.6"/>
<path d="M242 15.5C242 16.3284 241.328 17 240.5 17C239.672 17 239 16.3284 239 15.5C239 14.6716 239.672 14 240.5 14C241.328 14 242 14.6716 242 15.5Z" fill="#6B7280" fill-opacity="0.6"/>
<path d="M261 15.5C261 16.3284 260.328 17 259.5 17C258.672 17 258 16.3284 258 15.5C258 14.6716 258.672 14 259.5 14C260.328 14 261 14.6716 261 15.5Z" fill="#6B7280" fill-opacity="0.6"/>
<path d="M280 15.5C280 16.3284 279.328 17 278.5 17C277.672 17 277 16.3284 277 15.5C277 14.6716 277.672 14 278.5 14C279.328 14 280 14.6716 280 15.5Z" fill="#6B7280" fill-opacity="0.6"/>
<path d="M-43 34.5C-43 35.3284 -43.6716 36 -44.5 36C-45.3284 36 -46 35.3284 -46 34.5C-46 33.6716 -45.3284 33 -44.5 33C-43.6716 33 -43 33.6716 -43 34.5Z" fill="#6B7280" fill-opacity="0.6"/>
<path d="M-24 34.5C-24 35.3284 -24.6716 36 -25.5 36C-26.3284 36 -27 35.3284 -27 34.5C-27 33.6716 -26.3284 33 -25.5 33C-24.6716 33 -24 33.6716 -24 34.5Z" fill="#6B7280" fill-opacity="0.6"/>
<path d="M-5 34.5C-5 35.3284 -5.67157 36 -6.5 36C-7.32843 36 -8 35.3284 -8 34.5C-8 33.6716 -7.32843 33 -6.5 33C-5.67157 33 -5 33.6716 -5 34.5Z" fill="#6B7280" fill-opacity="0.6"/>
<path d="M14 34.5C14 35.3284 13.3284 36 12.5 36C11.6716 36 11 35.3284 11 34.5C11 33.6716 11.6716 33 12.5 33C13.3284 33 14 33.6716 14 34.5Z" fill="#6B7280" fill-opacity="0.6"/>
<path d="M33 34.5C33 35.3284 32.3284 36 31.5 36C30.6716 36 30 35.3284 30 34.5C30 33.6716 30.6716 33 31.5 33C32.3284 33 33 33.6716 33 34.5Z" fill="#6B7280" fill-opacity="0.6"/>
<path d="M52 34.5C52 35.3284 51.3284 36 50.5 36C49.6716 36 49 35.3284 49 34.5C49 33.6716 49.6716 33 50.5 33C51.3284 33 52 33.6716 52 34.5Z" fill="#6B7280" fill-opacity="0.6"/>
<path d="M71 34.5C71 35.3284 70.3284 36 69.5 36C68.6716 36 68 35.3284 68 34.5C68 33.6716 68.6716 33 69.5 33C70.3284 33 71 33.6716 71 34.5Z" fill="#6B7280" fill-opacity="0.6"/>
<path d="M166 34.5C166 35.3284 165.328 36 164.5 36C163.672 36 163 35.3284 163 34.5C163 33.6716 163.672 33 164.5 33C165.328 33 166 33.6716 166 34.5Z" fill="#6B7280" fill-opacity="0.6"/>
<path d="M185 34.5C185 35.3284 184.328 36 183.5 36C182.672 36 182 35.3284 182 34.5C182 33.6716 182.672 33 183.5 33C184.328 33 185 33.6716 185 34.5Z" fill="#6B7280" fill-opacity="0.6"/>
<path d="M204 34.5C204 35.3284 203.328 36 202.5 36C201.672 36 201 35.3284 201 34.5C201 33.6716 201.672 33 202.5 33C203.328 33 204 33.6716 204 34.5Z" fill="#6B7280" fill-opacity="0.6"/>
<path d="M223 34.5C223 35.3284 222.328 36 221.5 36C220.672 36 220 35.3284 220 34.5C220 33.6716 220.672 33 221.5 33C222.328 33 223 33.6716 223 34.5Z" fill="#6B7280" fill-opacity="0.6"/>
<path d="M242 34.5C242 35.3284 241.328 36 240.5 36C239.672 36 239 35.3284 239 34.5C239 33.6716 239.672 33 240.5 33C241.328 33 242 33.6716 242 34.5Z" fill="#6B7280" fill-opacity="0.6"/>
<path d="M261 34.5C261 35.3284 260.328 36 259.5 36C258.672 36 258 35.3284 258 34.5C258 33.6716 258.672 33 259.5 33C260.328 33 261 33.6716 261 34.5Z" fill="#6B7280" fill-opacity="0.6"/>
<path d="M280 34.5C280 35.3284 279.328 36 278.5 36C277.672 36 277 35.3284 277 34.5C277 33.6716 277.672 33 278.5 33C279.328 33 280 33.6716 280 34.5Z" fill="#6B7280" fill-opacity="0.6"/>
<path d="M-43 53.5C-43 54.3284 -43.6716 55 -44.5 55C-45.3284 55 -46 54.3284 -46 53.5C-46 52.6716 -45.3284 52 -44.5 52C-43.6716 52 -43 52.6716 -43 53.5Z" fill="#6B7280" fill-opacity="0.6"/>
<path d="M-24 53.5C-24 54.3284 -24.6716 55 -25.5 55C-26.3284 55 -27 54.3284 -27 53.5C-27 52.6716 -26.3284 52 -25.5 52C-24.6716 52 -24 52.6716 -24 53.5Z" fill="#6B7280" fill-opacity="0.6"/>
<path d="M-5 53.5C-5 54.3284 -5.67157 55 -6.5 55C-7.32843 55 -8 54.3284 -8 53.5C-8 52.6716 -7.32843 52 -6.5 52C-5.67157 52 -5 52.6716 -5 53.5Z" fill="#6B7280" fill-opacity="0.6"/>
<path d="M14 53.5C14 54.3284 13.3284 55 12.5 55C11.6716 55 11 54.3284 11 53.5C11 52.6716 11.6716 52 12.5 52C13.3284 52 14 52.6716 14 53.5Z" fill="#6B7280" fill-opacity="0.6"/>
<path d="M33 53.5C33 54.3284 32.3284 55 31.5 55C30.6716 55 30 54.3284 30 53.5C30 52.6716 30.6716 52 31.5 52C32.3284 52 33 52.6716 33 53.5Z" fill="#6B7280" fill-opacity="0.6"/>
<path d="M52 53.5C52 54.3284 51.3284 55 50.5 55C49.6716 55 49 54.3284 49 53.5C49 52.6716 49.6716 52 50.5 52C51.3284 52 52 52.6716 52 53.5Z" fill="#6B7280" fill-opacity="0.6"/>
<path d="M185 53.5C185 54.3284 184.328 55 183.5 55C182.672 55 182 54.3284 182 53.5C182 52.6716 182.672 52 183.5 52C184.328 52 185 52.6716 185 53.5Z" fill="#6B7280" fill-opacity="0.6"/>
<path d="M204 53.5C204 54.3284 203.328 55 202.5 55C201.672 55 201 54.3284 201 53.5C201 52.6716 201.672 52 202.5 52C203.328 52 204 52.6716 204 53.5Z" fill="#6B7280" fill-opacity="0.6"/>
<path d="M223 53.5C223 54.3284 222.328 55 221.5 55C220.672 55 220 54.3284 220 53.5C220 52.6716 220.672 52 221.5 52C222.328 52 223 52.6716 223 53.5Z" fill="#6B7280" fill-opacity="0.6"/>
<path d="M242 53.5C242 54.3284 241.328 55 240.5 55C239.672 55 239 54.3284 239 53.5C239 52.6716 239.672 52 240.5 52C241.328 52 242 52.6716 242 53.5Z" fill="#6B7280" fill-opacity="0.6"/>
<path d="M261 53.5C261 54.3284 260.328 55 259.5 55C258.672 55 258 54.3284 258 53.5C258 52.6716 258.672 52 259.5 52C260.328 52 261 52.6716 261 53.5Z" fill="#6B7280" fill-opacity="0.6"/>
<path d="M280 53.5C280 54.3284 279.328 55 278.5 55C277.672 55 277 54.3284 277 53.5C277 52.6716 277.672 52 278.5 52C279.328 52 280 52.6716 280 53.5Z" fill="#6B7280" fill-opacity="0.6"/>
<path d="M-43 72.5C-43 73.3284 -43.6716 74 -44.5 74C-45.3284 74 -46 73.3284 -46 72.5C-46 71.6716 -45.3284 71 -44.5 71C-43.6716 71 -43 71.6716 -43 72.5Z" fill="#6B7280" fill-opacity="0.6"/>
<path d="M-24 72.5C-24 73.3284 -24.6716 74 -25.5 74C-26.3284 74 -27 73.3284 -27 72.5C-27 71.6716 -26.3284 71 -25.5 71C-24.6716 71 -24 71.6716 -24 72.5Z" fill="#6B7280" fill-opacity="0.6"/>
<path d="M-5 72.5C-5 73.3284 -5.67157 74 -6.5 74C-7.32843 74 -8 73.3284 -8 72.5C-8 71.6716 -7.32843 71 -6.5 71C-5.67157 71 -5 71.6716 -5 72.5Z" fill="#6B7280" fill-opacity="0.6"/>
<path d="M14 72.5C14 73.3284 13.3284 74 12.5 74C11.6716 74 11 73.3284 11 72.5C11 71.6716 11.6716 71 12.5 71C13.3284 71 14 71.6716 14 72.5Z" fill="#6B7280" fill-opacity="0.6"/>
<path d="M33 72.5C33 73.3284 32.3284 74 31.5 74C30.6716 74 30 73.3284 30 72.5C30 71.6716 30.6716 71 31.5 71C32.3284 71 33 71.6716 33 72.5Z" fill="#6B7280" fill-opacity="0.6"/>
<path d="M52 72.5C52 73.3284 51.3284 74 50.5 74C49.6716 74 49 73.3284 49 72.5C49 71.6716 49.6716 71 50.5 71C51.3284 71 52 71.6716 52 72.5Z" fill="#6B7280" fill-opacity="0.6"/>
<path d="M185 72.5C185 73.3284 184.328 74 183.5 74C182.672 74 182 73.3284 182 72.5C182 71.6716 182.672 71 183.5 71C184.328 71 185 71.6716 185 72.5Z" fill="#6B7280" fill-opacity="0.6"/>
<path d="M204 72.5C204 73.3284 203.328 74 202.5 74C201.672 74 201 73.3284 201 72.5C201 71.6716 201.672 71 202.5 71C203.328 71 204 71.6716 204 72.5Z" fill="#6B7280" fill-opacity="0.6"/>
<path d="M223 72.5C223 73.3284 222.328 74 221.5 74C220.672 74 220 73.3284 220 72.5C220 71.6716 220.672 71 221.5 71C222.328 71 223 71.6716 223 72.5Z" fill="#6B7280" fill-opacity="0.6"/>
<path d="M242 72.5C242 73.3284 241.328 74 240.5 74C239.672 74 239 73.3284 239 72.5C239 71.6716 239.672 71 240.5 71C241.328 71 242 71.6716 242 72.5Z" fill="#6B7280" fill-opacity="0.6"/>
<path d="M261 72.5C261 73.3284 260.328 74 259.5 74C258.672 74 258 73.3284 258 72.5C258 71.6716 258.672 71 259.5 71C260.328 71 261 71.6716 261 72.5Z" fill="#6B7280" fill-opacity="0.6"/>
<path d="M280 72.5C280 73.3284 279.328 74 278.5 74C277.672 74 277 73.3284 277 72.5C277 71.6716 277.672 71 278.5 71C279.328 71 280 71.6716 280 72.5Z" fill="#6B7280" fill-opacity="0.6"/>
<path d="M-43 91.5C-43 92.3284 -43.6716 93 -44.5 93C-45.3284 93 -46 92.3284 -46 91.5C-46 90.6716 -45.3284 90 -44.5 90C-43.6716 90 -43 90.6716 -43 91.5Z" fill="#6B7280" fill-opacity="0.6"/>
<path d="M-24 91.5C-24 92.3284 -24.6716 93 -25.5 93C-26.3284 93 -27 92.3284 -27 91.5C-27 90.6716 -26.3284 90 -25.5 90C-24.6716 90 -24 90.6716 -24 91.5Z" fill="#6B7280" fill-opacity="0.6"/>
<path d="M-5 91.5C-5 92.3284 -5.67157 93 -6.5 93C-7.32843 93 -8 92.3284 -8 91.5C-8 90.6716 -7.32843 90 -6.5 90C-5.67157 90 -5 90.6716 -5 91.5Z" fill="#6B7280" fill-opacity="0.6"/>
<path d="M14 91.5C14 92.3284 13.3284 93 12.5 93C11.6716 93 11 92.3284 11 91.5C11 90.6716 11.6716 90 12.5 90C13.3284 90 14 90.6716 14 91.5Z" fill="#6B7280" fill-opacity="0.6"/>
<path d="M33 91.5C33 92.3284 32.3284 93 31.5 93C30.6716 93 30 92.3284 30 91.5C30 90.6716 30.6716 90 31.5 90C32.3284 90 33 90.6716 33 91.5Z" fill="#6B7280" fill-opacity="0.6"/>
<path d="M52 91.5C52 92.3284 51.3284 93 50.5 93C49.6716 93 49 92.3284 49 91.5C49 90.6716 49.6716 90 50.5 90C51.3284 90 52 90.6716 52 91.5Z" fill="#6B7280" fill-opacity="0.6"/>
<path d="M185 91.5C185 92.3284 184.328 93 183.5 93C182.672 93 182 92.3284 182 91.5C182 90.6716 182.672 90 183.5 90C184.328 90 185 90.6716 185 91.5Z" fill="#6B7280" fill-opacity="0.6"/>
<path d="M204 91.5C204 92.3284 203.328 93 202.5 93C201.672 93 201 92.3284 201 91.5C201 90.6716 201.672 90 202.5 90C203.328 90 204 90.6716 204 91.5Z" fill="#6B7280" fill-opacity="0.6"/>
<path d="M223 91.5C223 92.3284 222.328 93 221.5 93C220.672 93 220 92.3284 220 91.5C220 90.6716 220.672 90 221.5 90C222.328 90 223 90.6716 223 91.5Z" fill="#6B7280" fill-opacity="0.6"/>
<path d="M242 91.5C242 92.3284 241.328 93 240.5 93C239.672 93 239 92.3284 239 91.5C239 90.6716 239.672 90 240.5 90C241.328 90 242 90.6716 242 91.5Z" fill="#6B7280" fill-opacity="0.6"/>
<path d="M261 91.5C261 92.3284 260.328 93 259.5 93C258.672 93 258 92.3284 258 91.5C258 90.6716 258.672 90 259.5 90C260.328 90 261 90.6716 261 91.5Z" fill="#6B7280" fill-opacity="0.6"/>
<path d="M280 91.5C280 92.3284 279.328 93 278.5 93C277.672 93 277 92.3284 277 91.5C277 90.6716 277.672 90 278.5 90C279.328 90 280 90.6716 280 91.5Z" fill="#6B7280" fill-opacity="0.6"/>
<path d="M-43 110.5C-43 111.328 -43.6716 112 -44.5 112C-45.3284 112 -46 111.328 -46 110.5C-46 109.672 -45.3284 109 -44.5 109C-43.6716 109 -43 109.672 -43 110.5Z" fill="#6B7280" fill-opacity="0.6"/>
<path d="M-24 110.5C-24 111.328 -24.6716 112 -25.5 112C-26.3284 112 -27 111.328 -27 110.5C-27 109.672 -26.3284 109 -25.5 109C-24.6716 109 -24 109.672 -24 110.5Z" fill="#6B7280" fill-opacity="0.6"/>
<path d="M-5 110.5C-5 111.328 -5.67157 112 -6.5 112C-7.32843 112 -8 111.328 -8 110.5C-8 109.672 -7.32843 109 -6.5 109C-5.67157 109 -5 109.672 -5 110.5Z" fill="#6B7280" fill-opacity="0.6"/>
<path d="M14 110.5C14 111.328 13.3284 112 12.5 112C11.6716 112 11 111.328 11 110.5C11 109.672 11.6716 109 12.5 109C13.3284 109 14 109.672 14 110.5Z" fill="#6B7280" fill-opacity="0.6"/>
<path d="M33 110.5C33 111.328 32.3284 112 31.5 112C30.6716 112 30 111.328 30 110.5C30 109.672 30.6716 109 31.5 109C32.3284 109 33 109.672 33 110.5Z" fill="#6B7280" fill-opacity="0.6"/>
<path d="M52 110.5C52 111.328 51.3284 112 50.5 112C49.6716 112 49 111.328 49 110.5C49 109.672 49.6716 109 50.5 109C51.3284 109 52 109.672 52 110.5Z" fill="#6B7280" fill-opacity="0.6"/>
<path d="M185 110.5C185 111.328 184.328 112 183.5 112C182.672 112 182 111.328 182 110.5C182 109.672 182.672 109 183.5 109C184.328 109 185 109.672 185 110.5Z" fill="#6B7280" fill-opacity="0.6"/>
<path d="M204 110.5C204 111.328 203.328 112 202.5 112C201.672 112 201 111.328 201 110.5C201 109.672 201.672 109 202.5 109C203.328 109 204 109.672 204 110.5Z" fill="#6B7280" fill-opacity="0.6"/>
<path d="M223 110.5C223 111.328 222.328 112 221.5 112C220.672 112 220 111.328 220 110.5C220 109.672 220.672 109 221.5 109C222.328 109 223 109.672 223 110.5Z" fill="#6B7280" fill-opacity="0.6"/>
<path d="M242 110.5C242 111.328 241.328 112 240.5 112C239.672 112 239 111.328 239 110.5C239 109.672 239.672 109 240.5 109C241.328 109 242 109.672 242 110.5Z" fill="#6B7280" fill-opacity="0.6"/>
<path d="M261 110.5C261 111.328 260.328 112 259.5 112C258.672 112 258 111.328 258 110.5C258 109.672 258.672 109 259.5 109C260.328 109 261 109.672 261 110.5Z" fill="#6B7280" fill-opacity="0.6"/>
<path d="M280 110.5C280 111.328 279.328 112 278.5 112C277.672 112 277 111.328 277 110.5C277 109.672 277.672 109 278.5 109C279.328 109 280 109.672 280 110.5Z" fill="#6B7280" fill-opacity="0.6"/>
<path d="M-43 129.5C-43 130.328 -43.6716 131 -44.5 131C-45.3284 131 -46 130.328 -46 129.5C-46 128.672 -45.3284 128 -44.5 128C-43.6716 128 -43 128.672 -43 129.5Z" fill="#6B7280" fill-opacity="0.6"/>
<path d="M-24 129.5C-24 130.328 -24.6716 131 -25.5 131C-26.3284 131 -27 130.328 -27 129.5C-27 128.672 -26.3284 128 -25.5 128C-24.6716 128 -24 128.672 -24 129.5Z" fill="#6B7280" fill-opacity="0.6"/>
<path d="M-5 129.5C-5 130.328 -5.67157 131 -6.5 131C-7.32843 131 -8 130.328 -8 129.5C-8 128.672 -7.32843 128 -6.5 128C-5.67157 128 -5 128.672 -5 129.5Z" fill="#6B7280" fill-opacity="0.6"/>
<path d="M14 129.5C14 130.328 13.3284 131 12.5 131C11.6716 131 11 130.328 11 129.5C11 128.672 11.6716 128 12.5 128C13.3284 128 14 128.672 14 129.5Z" fill="#6B7280" fill-opacity="0.6"/>
<path d="M33 129.5C33 130.328 32.3284 131 31.5 131C30.6716 131 30 130.328 30 129.5C30 128.672 30.6716 128 31.5 128C32.3284 128 33 128.672 33 129.5Z" fill="#6B7280" fill-opacity="0.6"/>
<path d="M52 129.5C52 130.328 51.3284 131 50.5 131C49.6716 131 49 130.328 49 129.5C49 128.672 49.6716 128 50.5 128C51.3284 128 52 128.672 52 129.5Z" fill="#6B7280" fill-opacity="0.6"/>
<path d="M71 129.5C71 130.328 70.3284 131 69.5 131C68.6716 131 68 130.328 68 129.5C68 128.672 68.6716 128 69.5 128C70.3284 128 71 128.672 71 129.5Z" fill="#6B7280" fill-opacity="0.6"/>
<path d="M166 129.5C166 130.328 165.328 131 164.5 131C163.672 131 163 130.328 163 129.5C163 128.672 163.672 128 164.5 128C165.328 128 166 128.672 166 129.5Z" fill="#6B7280" fill-opacity="0.6"/>
<path d="M185 129.5C185 130.328 184.328 131 183.5 131C182.672 131 182 130.328 182 129.5C182 128.672 182.672 128 183.5 128C184.328 128 185 128.672 185 129.5Z" fill="#6B7280" fill-opacity="0.6"/>
<path d="M204 129.5C204 130.328 203.328 131 202.5 131C201.672 131 201 130.328 201 129.5C201 128.672 201.672 128 202.5 128C203.328 128 204 128.672 204 129.5Z" fill="#6B7280" fill-opacity="0.6"/>
<path d="M223 129.5C223 130.328 222.328 131 221.5 131C220.672 131 220 130.328 220 129.5C220 128.672 220.672 128 221.5 128C222.328 128 223 128.672 223 129.5Z" fill="#6B7280" fill-opacity="0.6"/>
<path d="M242 129.5C242 130.328 241.328 131 240.5 131C239.672 131 239 130.328 239 129.5C239 128.672 239.672 128 240.5 128C241.328 128 242 128.672 242 129.5Z" fill="#6B7280" fill-opacity="0.6"/>
<path d="M261 129.5C261 130.328 260.328 131 259.5 131C258.672 131 258 130.328 258 129.5C258 128.672 258.672 128 259.5 128C260.328 128 261 128.672 261 129.5Z" fill="#6B7280" fill-opacity="0.6"/>
<path d="M280 129.5C280 130.328 279.328 131 278.5 131C277.672 131 277 130.328 277 129.5C277 128.672 277.672 128 278.5 128C279.328 128 280 128.672 280 129.5Z" fill="#6B7280" fill-opacity="0.6"/>
<path d="M-43 148.5C-43 149.328 -43.6716 150 -44.5 150C-45.3284 150 -46 149.328 -46 148.5C-46 147.672 -45.3284 147 -44.5 147C-43.6716 147 -43 147.672 -43 148.5Z" fill="#6B7280" fill-opacity="0.6"/>
<path d="M-24 148.5C-24 149.328 -24.6716 150 -25.5 150C-26.3284 150 -27 149.328 -27 148.5C-27 147.672 -26.3284 147 -25.5 147C-24.6716 147 -24 147.672 -24 148.5Z" fill="#6B7280" fill-opacity="0.6"/>
<path d="M-5 148.5C-5 149.328 -5.67157 150 -6.5 150C-7.32843 150 -8 149.328 -8 148.5C-8 147.672 -7.32843 147 -6.5 147C-5.67157 147 -5 147.672 -5 148.5Z" fill="#6B7280" fill-opacity="0.6"/>
<path d="M14 148.5C14 149.328 13.3284 150 12.5 150C11.6716 150 11 149.328 11 148.5C11 147.672 11.6716 147 12.5 147C13.3284 147 14 147.672 14 148.5Z" fill="#6B7280" fill-opacity="0.6"/>
<path d="M33 148.5C33 149.328 32.3284 150 31.5 150C30.6716 150 30 149.328 30 148.5C30 147.672 30.6716 147 31.5 147C32.3284 147 33 147.672 33 148.5Z" fill="#6B7280" fill-opacity="0.6"/>
<path d="M52 148.5C52 149.328 51.3284 150 50.5 150C49.6716 150 49 149.328 49 148.5C49 147.672 49.6716 147 50.5 147C51.3284 147 52 147.672 52 148.5Z" fill="#6B7280" fill-opacity="0.6"/>
<path d="M71 148.5C71 149.328 70.3284 150 69.5 150C68.6716 150 68 149.328 68 148.5C68 147.672 68.6716 147 69.5 147C70.3284 147 71 147.672 71 148.5Z" fill="#6B7280" fill-opacity="0.6"/>
<path d="M90 148.5C90 149.328 89.3284 150 88.5 150C87.6716 150 87 149.328 87 148.5C87 147.672 87.6716 147 88.5 147C89.3284 147 90 147.672 90 148.5Z" fill="#6B7280" fill-opacity="0.6"/>
<path d="M109 148.5C109 149.328 108.328 150 107.5 150C106.672 150 106 149.328 106 148.5C106 147.672 106.672 147 107.5 147C108.328 147 109 147.672 109 148.5Z" fill="#6B7280" fill-opacity="0.6"/>
<path d="M128 148.5C128 149.328 127.328 150 126.5 150C125.672 150 125 149.328 125 148.5C125 147.672 125.672 147 126.5 147C127.328 147 128 147.672 128 148.5Z" fill="#6B7280" fill-opacity="0.6"/>
<path d="M147 148.5C147 149.328 146.328 150 145.5 150C144.672 150 144 149.328 144 148.5C144 147.672 144.672 147 145.5 147C146.328 147 147 147.672 147 148.5Z" fill="#6B7280" fill-opacity="0.6"/>
<path d="M166 148.5C166 149.328 165.328 150 164.5 150C163.672 150 163 149.328 163 148.5C163 147.672 163.672 147 164.5 147C165.328 147 166 147.672 166 148.5Z" fill="#6B7280" fill-opacity="0.6"/>
<path d="M185 148.5C185 149.328 184.328 150 183.5 150C182.672 150 182 149.328 182 148.5C182 147.672 182.672 147 183.5 147C184.328 147 185 147.672 185 148.5Z" fill="#6B7280" fill-opacity="0.6"/>
<path d="M204 148.5C204 149.328 203.328 150 202.5 150C201.672 150 201 149.328 201 148.5C201 147.672 201.672 147 202.5 147C203.328 147 204 147.672 204 148.5Z" fill="#6B7280" fill-opacity="0.6"/>
<path d="M223 148.5C223 149.328 222.328 150 221.5 150C220.672 150 220 149.328 220 148.5C220 147.672 220.672 147 221.5 147C222.328 147 223 147.672 223 148.5Z" fill="#6B7280" fill-opacity="0.6"/>
<path d="M242 148.5C242 149.328 241.328 150 240.5 150C239.672 150 239 149.328 239 148.5C239 147.672 239.672 147 240.5 147C241.328 147 242 147.672 242 148.5Z" fill="#6B7280" fill-opacity="0.6"/>
<path d="M261 148.5C261 149.328 260.328 150 259.5 150C258.672 150 258 149.328 258 148.5C258 147.672 258.672 147 259.5 147C260.328 147 261 147.672 261 148.5Z" fill="#6B7280" fill-opacity="0.6"/>
<path d="M280 148.5C280 149.328 279.328 150 278.5 150C277.672 150 277 149.328 277 148.5C277 147.672 277.672 147 278.5 147C279.328 147 280 147.672 280 148.5Z" fill="#6B7280" fill-opacity="0.6"/>
<path d="M-43 167.5C-43 168.328 -43.6716 169 -44.5 169C-45.3284 169 -46 168.328 -46 167.5C-46 166.672 -45.3284 166 -44.5 166C-43.6716 166 -43 166.672 -43 167.5Z" fill="#6B7280" fill-opacity="0.6"/>
<path d="M-24 167.5C-24 168.328 -24.6716 169 -25.5 169C-26.3284 169 -27 168.328 -27 167.5C-27 166.672 -26.3284 166 -25.5 166C-24.6716 166 -24 166.672 -24 167.5Z" fill="#6B7280" fill-opacity="0.6"/>
<path d="M-5 167.5C-5 168.328 -5.67157 169 -6.5 169C-7.32843 169 -8 168.328 -8 167.5C-8 166.672 -7.32843 166 -6.5 166C-5.67157 166 -5 166.672 -5 167.5Z" fill="#6B7280" fill-opacity="0.6"/>
<path d="M14 167.5C14 168.328 13.3284 169 12.5 169C11.6716 169 11 168.328 11 167.5C11 166.672 11.6716 166 12.5 166C13.3284 166 14 166.672 14 167.5Z" fill="#6B7280" fill-opacity="0.6"/>
<path d="M33 167.5C33 168.328 32.3284 169 31.5 169C30.6716 169 30 168.328 30 167.5C30 166.672 30.6716 166 31.5 166C32.3284 166 33 166.672 33 167.5Z" fill="#6B7280" fill-opacity="0.6"/>
<path d="M52 167.5C52 168.328 51.3284 169 50.5 169C49.6716 169 49 168.328 49 167.5C49 166.672 49.6716 166 50.5 166C51.3284 166 52 166.672 52 167.5Z" fill="#6B7280" fill-opacity="0.6"/>
<path d="M71 167.5C71 168.328 70.3284 169 69.5 169C68.6716 169 68 168.328 68 167.5C68 166.672 68.6716 166 69.5 166C70.3284 166 71 166.672 71 167.5Z" fill="#6B7280" fill-opacity="0.6"/>
<path d="M90 167.5C90 168.328 89.3284 169 88.5 169C87.6716 169 87 168.328 87 167.5C87 166.672 87.6716 166 88.5 166C89.3284 166 90 166.672 90 167.5Z" fill="#6B7280" fill-opacity="0.6"/>
<path d="M109 167.5C109 168.328 108.328 169 107.5 169C106.672 169 106 168.328 106 167.5C106 166.672 106.672 166 107.5 166C108.328 166 109 166.672 109 167.5Z" fill="#6B7280" fill-opacity="0.6"/>
<path d="M128 167.5C128 168.328 127.328 169 126.5 169C125.672 169 125 168.328 125 167.5C125 166.672 125.672 166 126.5 166C127.328 166 128 166.672 128 167.5Z" fill="#6B7280" fill-opacity="0.6"/>
<path d="M147 167.5C147 168.328 146.328 169 145.5 169C144.672 169 144 168.328 144 167.5C144 166.672 144.672 166 145.5 166C146.328 166 147 166.672 147 167.5Z" fill="#6B7280" fill-opacity="0.6"/>
<path d="M166 167.5C166 168.328 165.328 169 164.5 169C163.672 169 163 168.328 163 167.5C163 166.672 163.672 166 164.5 166C165.328 166 166 166.672 166 167.5Z" fill="#6B7280" fill-opacity="0.6"/>
<path d="M185 167.5C185 168.328 184.328 169 183.5 169C182.672 169 182 168.328 182 167.5C182 166.672 182.672 166 183.5 166C184.328 166 185 166.672 185 167.5Z" fill="#6B7280" fill-opacity="0.6"/>
<path d="M204 167.5C204 168.328 203.328 169 202.5 169C201.672 169 201 168.328 201 167.5C201 166.672 201.672 166 202.5 166C203.328 166 204 166.672 204 167.5Z" fill="#6B7280" fill-opacity="0.6"/>
<path d="M223 167.5C223 168.328 222.328 169 221.5 169C220.672 169 220 168.328 220 167.5C220 166.672 220.672 166 221.5 166C222.328 166 223 166.672 223 167.5Z" fill="#6B7280" fill-opacity="0.6"/>
<path d="M242 167.5C242 168.328 241.328 169 240.5 169C239.672 169 239 168.328 239 167.5C239 166.672 239.672 166 240.5 166C241.328 166 242 166.672 242 167.5Z" fill="#6B7280" fill-opacity="0.6"/>
<path d="M261 167.5C261 168.328 260.328 169 259.5 169C258.672 169 258 168.328 258 167.5C258 166.672 258.672 166 259.5 166C260.328 166 261 166.672 261 167.5Z" fill="#6B7280" fill-opacity="0.6"/>
<path d="M280 167.5C280 168.328 279.328 169 278.5 169C277.672 169 277 168.328 277 167.5C277 166.672 277.672 166 278.5 166C279.328 166 280 166.672 280 167.5Z" fill="#6B7280" fill-opacity="0.6"/>
<path d="M-43 186.5C-43 187.328 -43.6716 188 -44.5 188C-45.3284 188 -46 187.328 -46 186.5C-46 185.672 -45.3284 185 -44.5 185C-43.6716 185 -43 185.672 -43 186.5Z" fill="#6B7280" fill-opacity="0.6"/>
<path d="M-24 186.5C-24 187.328 -24.6716 188 -25.5 188C-26.3284 188 -27 187.328 -27 186.5C-27 185.672 -26.3284 185 -25.5 185C-24.6716 185 -24 185.672 -24 186.5Z" fill="#6B7280" fill-opacity="0.6"/>
<path d="M-5 186.5C-5 187.328 -5.67157 188 -6.5 188C-7.32843 188 -8 187.328 -8 186.5C-8 185.672 -7.32843 185 -6.5 185C-5.67157 185 -5 185.672 -5 186.5Z" fill="#6B7280" fill-opacity="0.6"/>
<path d="M14 186.5C14 187.328 13.3284 188 12.5 188C11.6716 188 11 187.328 11 186.5C11 185.672 11.6716 185 12.5 185C13.3284 185 14 185.672 14 186.5Z" fill="#6B7280" fill-opacity="0.6"/>
<path d="M33 186.5C33 187.328 32.3284 188 31.5 188C30.6716 188 30 187.328 30 186.5C30 185.672 30.6716 185 31.5 185C32.3284 185 33 185.672 33 186.5Z" fill="#6B7280" fill-opacity="0.6"/>
<path d="M52 186.5C52 187.328 51.3284 188 50.5 188C49.6716 188 49 187.328 49 186.5C49 185.672 49.6716 185 50.5 185C51.3284 185 52 185.672 52 186.5Z" fill="#6B7280" fill-opacity="0.6"/>
<path d="M71 186.5C71 187.328 70.3284 188 69.5 188C68.6716 188 68 187.328 68 186.5C68 185.672 68.6716 185 69.5 185C70.3284 185 71 185.672 71 186.5Z" fill="#6B7280" fill-opacity="0.6"/>
<path d="M90 186.5C90 187.328 89.3284 188 88.5 188C87.6716 188 87 187.328 87 186.5C87 185.672 87.6716 185 88.5 185C89.3284 185 90 185.672 90 186.5Z" fill="#6B7280" fill-opacity="0.6"/>
<path d="M109 186.5C109 187.328 108.328 188 107.5 188C106.672 188 106 187.328 106 186.5C106 185.672 106.672 185 107.5 185C108.328 185 109 185.672 109 186.5Z" fill="#6B7280" fill-opacity="0.6"/>
<path d="M128 186.5C128 187.328 127.328 188 126.5 188C125.672 188 125 187.328 125 186.5C125 185.672 125.672 185 126.5 185C127.328 185 128 185.672 128 186.5Z" fill="#6B7280" fill-opacity="0.6"/>
<path d="M147 186.5C147 187.328 146.328 188 145.5 188C144.672 188 144 187.328 144 186.5C144 185.672 144.672 185 145.5 185C146.328 185 147 185.672 147 186.5Z" fill="#6B7280" fill-opacity="0.6"/>
<path d="M166 186.5C166 187.328 165.328 188 164.5 188C163.672 188 163 187.328 163 186.5C163 185.672 163.672 185 164.5 185C165.328 185 166 185.672 166 186.5Z" fill="#6B7280" fill-opacity="0.6"/>
<path d="M185 186.5C185 187.328 184.328 188 183.5 188C182.672 188 182 187.328 182 186.5C182 185.672 182.672 185 183.5 185C184.328 185 185 185.672 185 186.5Z" fill="#6B7280" fill-opacity="0.6"/>
<path d="M204 186.5C204 187.328 203.328 188 202.5 188C201.672 188 201 187.328 201 186.5C201 185.672 201.672 185 202.5 185C203.328 185 204 185.672 204 186.5Z" fill="#6B7280" fill-opacity="0.6"/>
<path d="M223 186.5C223 187.328 222.328 188 221.5 188C220.672 188 220 187.328 220 186.5C220 185.672 220.672 185 221.5 185C222.328 185 223 185.672 223 186.5Z" fill="#6B7280" fill-opacity="0.6"/>
<path d="M242 186.5C242 187.328 241.328 188 240.5 188C239.672 188 239 187.328 239 186.5C239 185.672 239.672 185 240.5 185C241.328 185 242 185.672 242 186.5Z" fill="#6B7280" fill-opacity="0.6"/>
<path d="M261 186.5C261 187.328 260.328 188 259.5 188C258.672 188 258 187.328 258 186.5C258 185.672 258.672 185 259.5 185C260.328 185 261 185.672 261 186.5Z" fill="#6B7280" fill-opacity="0.6"/>
<path d="M280 186.5C280 187.328 279.328 188 278.5 188C277.672 188 277 187.328 277 186.5C277 185.672 277.672 185 278.5 185C279.328 185 280 185.672 280 186.5Z" fill="#6B7280" fill-opacity="0.6"/>
<path d="M-43 205.5C-43 206.328 -43.6716 207 -44.5 207C-45.3284 207 -46 206.328 -46 205.5C-46 204.672 -45.3284 204 -44.5 204C-43.6716 204 -43 204.672 -43 205.5Z" fill="#6B7280" fill-opacity="0.6"/>
<path d="M-24 205.5C-24 206.328 -24.6716 207 -25.5 207C-26.3284 207 -27 206.328 -27 205.5C-27 204.672 -26.3284 204 -25.5 204C-24.6716 204 -24 204.672 -24 205.5Z" fill="#6B7280" fill-opacity="0.6"/>
<path d="M-5 205.5C-5 206.328 -5.67157 207 -6.5 207C-7.32843 207 -8 206.328 -8 205.5C-8 204.672 -7.32843 204 -6.5 204C-5.67157 204 -5 204.672 -5 205.5Z" fill="#6B7280" fill-opacity="0.6"/>
<path d="M14 205.5C14 206.328 13.3284 207 12.5 207C11.6716 207 11 206.328 11 205.5C11 204.672 11.6716 204 12.5 204C13.3284 204 14 204.672 14 205.5Z" fill="#6B7280" fill-opacity="0.6"/>
<path d="M33 205.5C33 206.328 32.3284 207 31.5 207C30.6716 207 30 206.328 30 205.5C30 204.672 30.6716 204 31.5 204C32.3284 204 33 204.672 33 205.5Z" fill="#6B7280" fill-opacity="0.6"/>
<path d="M52 205.5C52 206.328 51.3284 207 50.5 207C49.6716 207 49 206.328 49 205.5C49 204.672 49.6716 204 50.5 204C51.3284 204 52 204.672 52 205.5Z" fill="#6B7280" fill-opacity="0.6"/>
<path d="M71 205.5C71 206.328 70.3284 207 69.5 207C68.6716 207 68 206.328 68 205.5C68 204.672 68.6716 204 69.5 204C70.3284 204 71 204.672 71 205.5Z" fill="#6B7280" fill-opacity="0.6"/>
<path d="M90 205.5C90 206.328 89.3284 207 88.5 207C87.6716 207 87 206.328 87 205.5C87 204.672 87.6716 204 88.5 204C89.3284 204 90 204.672 90 205.5Z" fill="#6B7280" fill-opacity="0.6"/>
<path d="M109 205.5C109 206.328 108.328 207 107.5 207C106.672 207 106 206.328 106 205.5C106 204.672 106.672 204 107.5 204C108.328 204 109 204.672 109 205.5Z" fill="#6B7280" fill-opacity="0.6"/>
<path d="M128 205.5C128 206.328 127.328 207 126.5 207C125.672 207 125 206.328 125 205.5C125 204.672 125.672 204 126.5 204C127.328 204 128 204.672 128 205.5Z" fill="#6B7280" fill-opacity="0.6"/>
<path d="M147 205.5C147 206.328 146.328 207 145.5 207C144.672 207 144 206.328 144 205.5C144 204.672 144.672 204 145.5 204C146.328 204 147 204.672 147 205.5Z" fill="#6B7280" fill-opacity="0.6"/>
<path d="M166 205.5C166 206.328 165.328 207 164.5 207C163.672 207 163 206.328 163 205.5C163 204.672 163.672 204 164.5 204C165.328 204 166 204.672 166 205.5Z" fill="#6B7280" fill-opacity="0.6"/>
<path d="M185 205.5C185 206.328 184.328 207 183.5 207C182.672 207 182 206.328 182 205.5C182 204.672 182.672 204 183.5 204C184.328 204 185 204.672 185 205.5Z" fill="#6B7280" fill-opacity="0.6"/>
<path d="M204 205.5C204 206.328 203.328 207 202.5 207C201.672 207 201 206.328 201 205.5C201 204.672 201.672 204 202.5 204C203.328 204 204 204.672 204 205.5Z" fill="#6B7280" fill-opacity="0.6"/>
<path d="M223 205.5C223 206.328 222.328 207 221.5 207C220.672 207 220 206.328 220 205.5C220 204.672 220.672 204 221.5 204C222.328 204 223 204.672 223 205.5Z" fill="#6B7280" fill-opacity="0.6"/>
<path d="M242 205.5C242 206.328 241.328 207 240.5 207C239.672 207 239 206.328 239 205.5C239 204.672 239.672 204 240.5 204C241.328 204 242 204.672 242 205.5Z" fill="#6B7280" fill-opacity="0.6"/>
<path d="M261 205.5C261 206.328 260.328 207 259.5 207C258.672 207 258 206.328 258 205.5C258 204.672 258.672 204 259.5 204C260.328 204 261 204.672 261 205.5Z" fill="#6B7280" fill-opacity="0.6"/>
<path d="M280 205.5C280 206.328 279.328 207 278.5 207C277.672 207 277 206.328 277 205.5C277 204.672 277.672 204 278.5 204C279.328 204 280 204.672 280 205.5Z" fill="#6B7280" fill-opacity="0.6"/>
<path d="M-43 224.5C-43 225.328 -43.6716 226 -44.5 226C-45.3284 226 -46 225.328 -46 224.5C-46 223.672 -45.3284 223 -44.5 223C-43.6716 223 -43 223.672 -43 224.5Z" fill="#6B7280" fill-opacity="0.6"/>
<path d="M-24 224.5C-24 225.328 -24.6716 226 -25.5 226C-26.3284 226 -27 225.328 -27 224.5C-27 223.672 -26.3284 223 -25.5 223C-24.6716 223 -24 223.672 -24 224.5Z" fill="#6B7280" fill-opacity="0.6"/>
<path d="M-5 224.5C-5 225.328 -5.67157 226 -6.5 226C-7.32843 226 -8 225.328 -8 224.5C-8 223.672 -7.32843 223 -6.5 223C-5.67157 223 -5 223.672 -5 224.5Z" fill="#6B7280" fill-opacity="0.6"/>
<path d="M14 224.5C14 225.328 13.3284 226 12.5 226C11.6716 226 11 225.328 11 224.5C11 223.672 11.6716 223 12.5 223C13.3284 223 14 223.672 14 224.5Z" fill="#6B7280" fill-opacity="0.6"/>
<path d="M33 224.5C33 225.328 32.3284 226 31.5 226C30.6716 226 30 225.328 30 224.5C30 223.672 30.6716 223 31.5 223C32.3284 223 33 223.672 33 224.5Z" fill="#6B7280" fill-opacity="0.6"/>
<path d="M52 224.5C52 225.328 51.3284 226 50.5 226C49.6716 226 49 225.328 49 224.5C49 223.672 49.6716 223 50.5 223C51.3284 223 52 223.672 52 224.5Z" fill="#6B7280" fill-opacity="0.6"/>
<path d="M71 224.5C71 225.328 70.3284 226 69.5 226C68.6716 226 68 225.328 68 224.5C68 223.672 68.6716 223 69.5 223C70.3284 223 71 223.672 71 224.5Z" fill="#6B7280" fill-opacity="0.6"/>
<path d="M90 224.5C90 225.328 89.3284 226 88.5 226C87.6716 226 87 225.328 87 224.5C87 223.672 87.6716 223 88.5 223C89.3284 223 90 223.672 90 224.5Z" fill="#6B7280" fill-opacity="0.6"/>
<path d="M109 224.5C109 225.328 108.328 226 107.5 226C106.672 226 106 225.328 106 224.5C106 223.672 106.672 223 107.5 223C108.328 223 109 223.672 109 224.5Z" fill="#6B7280" fill-opacity="0.6"/>
<path d="M128 224.5C128 225.328 127.328 226 126.5 226C125.672 226 125 225.328 125 224.5C125 223.672 125.672 223 126.5 223C127.328 223 128 223.672 128 224.5Z" fill="#6B7280" fill-opacity="0.6"/>
<path d="M147 224.5C147 225.328 146.328 226 145.5 226C144.672 226 144 225.328 144 224.5C144 223.672 144.672 223 145.5 223C146.328 223 147 223.672 147 224.5Z" fill="#6B7280" fill-opacity="0.6"/>
<path d="M166 224.5C166 225.328 165.328 226 164.5 226C163.672 226 163 225.328 163 224.5C163 223.672 163.672 223 164.5 223C165.328 223 166 223.672 166 224.5Z" fill="#6B7280" fill-opacity="0.6"/>
<path d="M185 224.5C185 225.328 184.328 226 183.5 226C182.672 226 182 225.328 182 224.5C182 223.672 182.672 223 183.5 223C184.328 223 185 223.672 185 224.5Z" fill="#6B7280" fill-opacity="0.6"/>
<path d="M204 224.5C204 225.328 203.328 226 202.5 226C201.672 226 201 225.328 201 224.5C201 223.672 201.672 223 202.5 223C203.328 223 204 223.672 204 224.5Z" fill="#6B7280" fill-opacity="0.6"/>
<path d="M223 224.5C223 225.328 222.328 226 221.5 226C220.672 226 220 225.328 220 224.5C220 223.672 220.672 223 221.5 223C222.328 223 223 223.672 223 224.5Z" fill="#6B7280" fill-opacity="0.6"/>
<path d="M242 224.5C242 225.328 241.328 226 240.5 226C239.672 226 239 225.328 239 224.5C239 223.672 239.672 223 240.5 223C241.328 223 242 223.672 242 224.5Z" fill="#6B7280" fill-opacity="0.6"/>
<path d="M261 224.5C261 225.328 260.328 226 259.5 226C258.672 226 258 225.328 258 224.5C258 223.672 258.672 223 259.5 223C260.328 223 261 223.672 261 224.5Z" fill="#6B7280" fill-opacity="0.6"/>
<path d="M280 224.5C280 225.328 279.328 226 278.5 226C277.672 226 277 225.328 277 224.5C277 223.672 277.672 223 278.5 223C279.328 223 280 223.672 280 224.5Z" fill="#6B7280" fill-opacity="0.6"/>
<path d="M-43 243.5C-43 244.328 -43.6716 245 -44.5 245C-45.3284 245 -46 244.328 -46 243.5C-46 242.672 -45.3284 242 -44.5 242C-43.6716 242 -43 242.672 -43 243.5Z" fill="#6B7280" fill-opacity="0.6"/>
<path d="M-24 243.5C-24 244.328 -24.6716 245 -25.5 245C-26.3284 245 -27 244.328 -27 243.5C-27 242.672 -26.3284 242 -25.5 242C-24.6716 242 -24 242.672 -24 243.5Z" fill="#6B7280" fill-opacity="0.6"/>
<path d="M-5 243.5C-5 244.328 -5.67157 245 -6.5 245C-7.32843 245 -8 244.328 -8 243.5C-8 242.672 -7.32843 242 -6.5 242C-5.67157 242 -5 242.672 -5 243.5Z" fill="#6B7280" fill-opacity="0.6"/>
<path d="M14 243.5C14 244.328 13.3284 245 12.5 245C11.6716 245 11 244.328 11 243.5C11 242.672 11.6716 242 12.5 242C13.3284 242 14 242.672 14 243.5Z" fill="#6B7280" fill-opacity="0.6"/>
<path d="M33 243.5C33 244.328 32.3284 245 31.5 245C30.6716 245 30 244.328 30 243.5C30 242.672 30.6716 242 31.5 242C32.3284 242 33 242.672 33 243.5Z" fill="#6B7280" fill-opacity="0.6"/>
<path d="M52 243.5C52 244.328 51.3284 245 50.5 245C49.6716 245 49 244.328 49 243.5C49 242.672 49.6716 242 50.5 242C51.3284 242 52 242.672 52 243.5Z" fill="#6B7280" fill-opacity="0.6"/>
<path d="M71 243.5C71 244.328 70.3284 245 69.5 245C68.6716 245 68 244.328 68 243.5C68 242.672 68.6716 242 69.5 242C70.3284 242 71 242.672 71 243.5Z" fill="#6B7280" fill-opacity="0.6"/>
<path d="M90 243.5C90 244.328 89.3284 245 88.5 245C87.6716 245 87 244.328 87 243.5C87 242.672 87.6716 242 88.5 242C89.3284 242 90 242.672 90 243.5Z" fill="#6B7280" fill-opacity="0.6"/>
<path d="M109 243.5C109 244.328 108.328 245 107.5 245C106.672 245 106 244.328 106 243.5C106 242.672 106.672 242 107.5 242C108.328 242 109 242.672 109 243.5Z" fill="#6B7280" fill-opacity="0.6"/>
<path d="M128 243.5C128 244.328 127.328 245 126.5 245C125.672 245 125 244.328 125 243.5C125 242.672 125.672 242 126.5 242C127.328 242 128 242.672 128 243.5Z" fill="#6B7280" fill-opacity="0.6"/>
<path d="M147 243.5C147 244.328 146.328 245 145.5 245C144.672 245 144 244.328 144 243.5C144 242.672 144.672 242 145.5 242C146.328 242 147 242.672 147 243.5Z" fill="#6B7280" fill-opacity="0.6"/>
<path d="M166 243.5C166 244.328 165.328 245 164.5 245C163.672 245 163 244.328 163 243.5C163 242.672 163.672 242 164.5 242C165.328 242 166 242.672 166 243.5Z" fill="#6B7280" fill-opacity="0.6"/>
<path d="M185 243.5C185 244.328 184.328 245 183.5 245C182.672 245 182 244.328 182 243.5C182 242.672 182.672 242 183.5 242C184.328 242 185 242.672 185 243.5Z" fill="#6B7280" fill-opacity="0.6"/>
<path d="M204 243.5C204 244.328 203.328 245 202.5 245C201.672 245 201 244.328 201 243.5C201 242.672 201.672 242 202.5 242C203.328 242 204 242.672 204 243.5Z" fill="#6B7280" fill-opacity="0.6"/>
<path d="M223 243.5C223 244.328 222.328 245 221.5 245C220.672 245 220 244.328 220 243.5C220 242.672 220.672 242 221.5 242C222.328 242 223 242.672 223 243.5Z" fill="#6B7280" fill-opacity="0.6"/>
<path d="M242 243.5C242 244.328 241.328 245 240.5 245C239.672 245 239 244.328 239 243.5C239 242.672 239.672 242 240.5 242C241.328 242 242 242.672 242 243.5Z" fill="#6B7280" fill-opacity="0.6"/>
<path d="M261 243.5C261 244.328 260.328 245 259.5 245C258.672 245 258 244.328 258 243.5C258 242.672 258.672 242 259.5 242C260.328 242 261 242.672 261 243.5Z" fill="#6B7280" fill-opacity="0.6"/>
<path d="M280 243.5C280 244.328 279.328 245 278.5 245C277.672 245 277 244.328 277 243.5C277 242.672 277.672 242 278.5 242C279.328 242 280 242.672 280 243.5Z" fill="#6B7280" fill-opacity="0.6"/>
</g>
<path d="M135 82.25V107.744H145.5C147.986 107.744 150 105.73 150 103.244V64.9937C150 59.4324 143.651 56.2561 139.2 59.5936L117 76.2437L99.0001 62.7436L94.8 59.5937C90.3486 56.2561 84 59.4327 84 64.9937V103.244C84 105.73 86.0138 107.744 88.5001 107.744L99 107.744V82.25L106 87.5V87.4936L117 95.7436L134 82.9936V83L135 82.25Z" fill="#6B7280"/>
</g>
<defs>
<radialGradient id="paint0_radial_112_712" cx="0" cy="0" r="1" gradientUnits="userSpaceOnUse" gradientTransform="translate(168 168) rotate(90) scale(168 168)">
<stop/>
<stop offset="1" stop-opacity="0"/>
</radialGradient>
<clipPath id="clip0_112_712">
<rect width="234" height="164" fill="white"/>
</clipPath>
</defs>
</svg>
